<?xml version="1.0" encoding="utf-8" standalone="no"?>
<!DOCTYPE svg PUBLIC "-//W3C//DTD SVG 1.1//EN"
  "http://www.w3.org/Graphics/SVG/1.1/DTD/svg11.dtd">
<svg xmlns:xlink="http://www.w3.org/1999/xlink" width="720pt" height="432pt" viewBox="0 0 720 432" xmlns="http://www.w3.org/2000/svg" version="1.1">
 <metadata>
  <rdf:RDF xmlns:dc="http://purl.org/dc/elements/1.1/" xmlns:cc="http://creativecommons.org/ns#" xmlns:rdf="http://www.w3.org/1999/02/22-rdf-syntax-ns#">
   <cc:Work>
    <dc:type rdf:resource="http://purl.org/dc/dcmitype/StillImage"/>
    <dc:date>2025-04-13T01:48:26.888254</dc:date>
    <dc:format>image/svg+xml</dc:format>
    <dc:creator>
     <cc:Agent>
      <dc:title>Matplotlib v3.9.2, https://matplotlib.org/</dc:title>
     </cc:Agent>
    </dc:creator>
   </cc:Work>
  </rdf:RDF>
 </metadata>
 <defs>
  <style type="text/css">*{stroke-linejoin: round; stroke-linecap: butt}</style>
 </defs>
 <g id="figure_1">
  <g id="patch_1">
   <path d="M 0 432 
L 720 432 
L 720 0 
L 0 0 
z
" style="fill: #ffffff"/>
  </g>
  <g id="axes_1">
   <g id="patch_2">
    <path d="M 68.33 379.96 
L 707.04 379.96 
L 707.04 30.48 
L 68.33 30.48 
z
" style="fill: #ffffff"/>
   </g>
   <g id="patch_3">
    <path d="M 97.362273 379.96 
L 124.058615 379.96 
L 124.058615 371.515774 
L 97.362273 371.515774 
z
" clip-path="url(#pb71a55f16a)" style="fill: #0000ff"/>
   </g>
   <g id="patch_4">
    <path d="M 142.867402 379.96 
L 169.563745 379.96 
L 169.563745 353.121775 
L 142.867402 353.121775 
z
" clip-path="url(#pb71a55f16a)" style="fill: #0000ff"/>
   </g>
   <g id="patch_5">
    <path d="M 188.372532 379.96 
L 215.068875 379.96 
L 215.068875 334.873349 
L 188.372532 334.873349 
z
" clip-path="url(#pb71a55f16a)" style="fill: #0000ff"/>
   </g>
   <g id="patch_6">
    <path d="M 233.877662 379.96 
L 260.574004 379.96 
L 260.574004 316.07517 
L 233.877662 316.07517 
z
" clip-path="url(#pb71a55f16a)" style="fill: #0000ff"/>
   </g>
   <g id="patch_7">
    <path d="M 279.382791 379.96 
L 306.079134 379.96 
L 306.079134 296.663651 
L 279.382791 296.663651 
z
" clip-path="url(#pb71a55f16a)" style="fill: #0000ff"/>
   </g>
   <g id="patch_8">
    <path d="M 324.887921 379.96 
L 351.584264 379.96 
L 351.584264 276.664096 
L 324.887921 276.664096 
z
" clip-path="url(#pb71a55f16a)" style="fill: #0000ff"/>
   </g>
   <g id="patch_9">
    <path d="M 370.393051 379.96 
L 397.089393 379.96 
L 397.089393 256.059186 
L 370.393051 256.059186 
z
" clip-path="url(#pb71a55f16a)" style="fill: #0000ff"/>
   </g>
   <g id="patch_10">
    <path d="M 415.89818 379.96 
L 442.594523 379.96 
L 442.594523 234.837793 
L 415.89818 234.837793 
z
" clip-path="url(#pb71a55f16a)" style="fill: #0000ff"/>
   </g>
   <g id="patch_11">
    <path d="M 461.40331 379.96 
L 488.099653 379.96 
L 488.099653 212.976913 
L 461.40331 212.976913 
z
" clip-path="url(#pb71a55f16a)" style="fill: #0000ff"/>
   </g>
   <g id="patch_12">
    <path d="M 506.90844 379.96 
L 533.604782 379.96 
L 533.604782 190.515658 
L 506.90844 190.515658 
z
" clip-path="url(#pb71a55f16a)" style="fill: #0000ff"/>
   </g>
   <g id="patch_13">
    <path d="M 552.413569 379.96 
L 579.109912 379.96 
L 579.109912 167.493579 
L 552.413569 167.493579 
z
" clip-path="url(#pb71a55f16a)" style="fill: #0000ff"/>
   </g>
   <g id="patch_14">
    <path d="M 597.918699 379.96 
L 624.615042 379.96 
L 624.615042 143.987927 
L 597.918699 143.987927 
z
" clip-path="url(#pb71a55f16a)" style="fill: #0000ff"/>
   </g>
   <g id="patch_15">
    <path d="M 124.058615 379.96 
L 150.754958 379.96 
L 150.754958 369.040133 
L 124.058615 369.040133 
z
" clip-path="url(#pb71a55f16a)" style="fill: #ffa500"/>
   </g>
   <g id="patch_16">
    <path d="M 169.563745 379.96 
L 196.260088 379.96 
L 196.260088 342.620892 
L 169.563745 342.620892 
z
" clip-path="url(#pb71a55f16a)" style="fill: #ffa500"/>
   </g>
   <g id="patch_17">
    <path d="M 215.068875 379.96 
L 241.765218 379.96 
L 241.765218 316.2552 
L 215.068875 316.2552 
z
" clip-path="url(#pb71a55f16a)" style="fill: #ffa500"/>
   </g>
   <g id="patch_18">
    <path d="M 260.574004 379.96 
L 287.270347 379.96 
L 287.270347 289.808324 
L 260.574004 289.808324 
z
" clip-path="url(#pb71a55f16a)" style="fill: #ffa500"/>
   </g>
   <g id="patch_19">
    <path d="M 306.079134 379.96 
L 332.775477 379.96 
L 332.775477 263.256803 
L 306.079134 263.256803 
z
" clip-path="url(#pb71a55f16a)" style="fill: #ffa500"/>
   </g>
   <g id="patch_20">
    <path d="M 351.584264 379.96 
L 378.280607 379.96 
L 378.280607 236.623276 
L 351.584264 236.623276 
z
" clip-path="url(#pb71a55f16a)" style="fill: #ffa500"/>
   </g>
   <g id="patch_21">
    <path d="M 397.089393 379.96 
L 423.785736 379.96 
L 423.785736 209.916342 
L 397.089393 209.916342 
z
" clip-path="url(#pb71a55f16a)" style="fill: #ffa500"/>
   </g>
   <g id="patch_22">
    <path d="M 442.594523 379.96 
L 469.290866 379.96 
L 469.290866 183.151447 
L 442.594523 183.151447 
z
" clip-path="url(#pb71a55f16a)" style="fill: #ffa500"/>
   </g>
   <g id="patch_23">
    <path d="M 488.099653 379.96 
L 514.795996 379.96 
L 514.795996 156.340582 
L 488.099653 156.340582 
z
" clip-path="url(#pb71a55f16a)" style="fill: #ffa500"/>
   </g>
   <g id="patch_24">
    <path d="M 533.604782 379.96 
L 560.301125 379.96 
L 560.301125 129.498607 
L 533.604782 129.498607 
z
" clip-path="url(#pb71a55f16a)" style="fill: #ffa500"/>
   </g>
   <g id="patch_25">
    <path d="M 579.109912 379.96 
L 605.806255 379.96 
L 605.806255 102.640047 
L 579.109912 102.640047 
z
" clip-path="url(#pb71a55f16a)" style="fill: #ffa500"/>
   </g>
   <g id="patch_26">
    <path d="M 624.615042 379.96 
L 651.311385 379.96 
L 651.311385 75.773715 
L 624.615042 75.773715 
z
" clip-path="url(#pb71a55f16a)" style="fill: #ffa500"/>
   </g>
   <g id="patch_27">
    <path d="M 150.754958 379.96 
L 177.451301 379.96 
L 177.451301 368.687085 
L 150.754958 368.687085 
z
" clip-path="url(#pb71a55f16a)" style="fill: #008000"/>
   </g>
   <g id="patch_28">
    <path d="M 196.260088 379.96 
L 222.956431 379.96 
L 222.956431 341.352592 
L 196.260088 341.352592 
z
" clip-path="url(#pb71a55f16a)" style="fill: #008000"/>
   </g>
   <g id="patch_29">
    <path d="M 241.765218 379.96 
L 268.46156 379.96 
L 268.46156 314.016899 
L 241.765218 314.016899 
z
" clip-path="url(#pb71a55f16a)" style="fill: #008000"/>
   </g>
   <g id="patch_30">
    <path d="M 287.270347 379.96 
L 313.96669 379.96 
L 313.96669 286.547331 
L 287.270347 286.547331 
z
" clip-path="url(#pb71a55f16a)" style="fill: #008000"/>
   </g>
   <g id="patch_31">
    <path d="M 332.775477 379.96 
L 359.47182 379.96 
L 359.47182 258.826023 
L 332.775477 258.826023 
z
" clip-path="url(#pb71a55f16a)" style="fill: #008000"/>
   </g>
   <g id="patch_32">
    <path d="M 378.280607 379.96 
L 404.976949 379.96 
L 404.976949 230.904203 
L 378.280607 230.904203 
z
" clip-path="url(#pb71a55f16a)" style="fill: #008000"/>
   </g>
   <g id="patch_33">
    <path d="M 423.785736 379.96 
L 450.482079 379.96 
L 450.482079 202.820556 
L 423.785736 202.820556 
z
" clip-path="url(#pb71a55f16a)" style="fill: #008000"/>
   </g>
   <g id="patch_34">
    <path d="M 469.290866 379.96 
L 495.987209 379.96 
L 495.987209 174.596391 
L 469.290866 174.596391 
z
" clip-path="url(#pb71a55f16a)" style="fill: #008000"/>
   </g>
   <g id="patch_35">
    <path d="M 514.795996 379.96 
L 541.492338 379.96 
L 541.492338 146.25123 
L 514.795996 146.25123 
z
" clip-path="url(#pb71a55f16a)" style="fill: #008000"/>
   </g>
   <g id="patch_36">
    <path d="M 560.301125 379.96 
L 586.997468 379.96 
L 586.997468 117.816248 
L 560.301125 117.816248 
z
" clip-path="url(#pb71a55f16a)" style="fill: #008000"/>
   </g>
   <g id="patch_37">
    <path d="M 605.806255 379.96 
L 632.502598 379.96 
L 632.502598 89.324402 
L 605.806255 89.324402 
z
" clip-path="url(#pb71a55f16a)" style="fill: #008000"/>
   </g>
   <g id="patch_38">
    <path d="M 651.311385 379.96 
L 678.007727 379.96 
L 678.007727 60.797288 
L 651.311385 60.797288 
z
" clip-path="url(#pb71a55f16a)" style="fill: #008000"/>
   </g>
   <g id="matplotlib.axis_1">
    <g id="xtick_1">
     <g id="line2d_1">
      <defs>
       <path id="m82c4e40bb7" d="M 0 0 
L 0 3.5 
" style="stroke: #000000; stroke-width: 0.8"/>
      </defs>
      <g>
       <use xlink:href="#m82c4e40bb7" x="137.406787" y="379.96" style="stroke: #000000; stroke-width: 0.8"/>
      </g>
     </g>
     <g id="text_1">
      <!-- 1 -->
      <g transform="translate(132.316787 399.1175) scale(0.16 -0.16)">
       <defs>
        <path id="DejaVuSans-31" d="M 794 531 
L 1825 531 
L 1825 4091 
L 703 3866 
L 703 4441 
L 1819 4666 
L 2450 4666 
L 2450 531 
L 3481 531 
L 3481 0 
L 794 0 
L 794 531 
z
" transform="scale(0.015625)"/>
       </defs>
       <use xlink:href="#DejaVuSans-31"/>
      </g>
     </g>
    </g>
    <g id="xtick_2">
     <g id="line2d_2">
      <g>
       <use xlink:href="#m82c4e40bb7" x="237.518072" y="379.96" style="stroke: #000000; stroke-width: 0.8"/>
      </g>
     </g>
     <g id="text_2">
      <!-- 2 -->
      <g transform="translate(232.428072 399.1175) scale(0.16 -0.16)">
       <defs>
        <path id="DejaVuSans-32" d="M 1228 531 
L 3431 531 
L 3431 0 
L 469 0 
L 469 531 
Q 828 903 1448 1529 
Q 2069 2156 2228 2338 
Q 2531 2678 2651 2914 
Q 2772 3150 2772 3378 
Q 2772 3750 2511 3984 
Q 2250 4219 1831 4219 
Q 1534 4219 1204 4116 
Q 875 4013 500 3803 
L 500 4441 
Q 881 4594 1212 4672 
Q 1544 4750 1819 4750 
Q 2544 4750 2975 4387 
Q 3406 4025 3406 3419 
Q 3406 3131 3298 2873 
Q 3191 2616 2906 2266 
Q 2828 2175 2409 1742 
Q 1991 1309 1228 531 
z
" transform="scale(0.015625)"/>
       </defs>
       <use xlink:href="#DejaVuSans-32"/>
      </g>
     </g>
    </g>
    <g id="xtick_3">
     <g id="line2d_3">
      <g>
       <use xlink:href="#m82c4e40bb7" x="337.629357" y="379.96" style="stroke: #000000; stroke-width: 0.8"/>
      </g>
     </g>
     <g id="text_3">
      <!-- 3 -->
      <g transform="translate(332.539357 399.1175) scale(0.16 -0.16)">
       <defs>
        <path id="DejaVuSans-33" d="M 2597 2516 
Q 3050 2419 3304 2112 
Q 3559 1806 3559 1356 
Q 3559 666 3084 287 
Q 2609 -91 1734 -91 
Q 1441 -91 1130 -33 
Q 819 25 488 141 
L 488 750 
Q 750 597 1062 519 
Q 1375 441 1716 441 
Q 2309 441 2620 675 
Q 2931 909 2931 1356 
Q 2931 1769 2642 2001 
Q 2353 2234 1838 2234 
L 1294 2234 
L 1294 2753 
L 1863 2753 
Q 2328 2753 2575 2939 
Q 2822 3125 2822 3475 
Q 2822 3834 2567 4026 
Q 2313 4219 1838 4219 
Q 1578 4219 1281 4162 
Q 984 4106 628 3988 
L 628 4550 
Q 988 4650 1302 4700 
Q 1616 4750 1894 4750 
Q 2613 4750 3031 4423 
Q 3450 4097 3450 3541 
Q 3450 3153 3228 2886 
Q 3006 2619 2597 2516 
z
" transform="scale(0.015625)"/>
       </defs>
       <use xlink:href="#DejaVuSans-33"/>
      </g>
     </g>
    </g>
    <g id="xtick_4">
     <g id="line2d_4">
      <g>
       <use xlink:href="#m82c4e40bb7" x="437.740643" y="379.96" style="stroke: #000000; stroke-width: 0.8"/>
      </g>
     </g>
     <g id="text_4">
      <!-- 4 -->
      <g transform="translate(432.650643 399.1175) scale(0.16 -0.16)">
       <defs>
        <path id="DejaVuSans-34" d="M 2419 4116 
L 825 1625 
L 2419 1625 
L 2419 4116 
z
M 2253 4666 
L 3047 4666 
L 3047 1625 
L 3713 1625 
L 3713 1100 
L 3047 1100 
L 3047 0 
L 2419 0 
L 2419 1100 
L 313 1100 
L 313 1709 
L 2253 4666 
z
" transform="scale(0.015625)"/>
       </defs>
       <use xlink:href="#DejaVuSans-34"/>
      </g>
     </g>
    </g>
    <g id="xtick_5">
     <g id="line2d_5">
      <g>
       <use xlink:href="#m82c4e40bb7" x="537.851928" y="379.96" style="stroke: #000000; stroke-width: 0.8"/>
      </g>
     </g>
     <g id="text_5">
      <!-- 5 -->
      <g transform="translate(532.761928 399.1175) scale(0.16 -0.16)">
       <defs>
        <path id="DejaVuSans-35" d="M 691 4666 
L 3169 4666 
L 3169 4134 
L 1269 4134 
L 1269 2991 
Q 1406 3038 1543 3061 
Q 1681 3084 1819 3084 
Q 2600 3084 3056 2656 
Q 3513 2228 3513 1497 
Q 3513 744 3044 326 
Q 2575 -91 1722 -91 
Q 1428 -91 1123 -41 
Q 819 9 494 109 
L 494 744 
Q 775 591 1075 516 
Q 1375 441 1709 441 
Q 2250 441 2565 725 
Q 2881 1009 2881 1497 
Q 2881 1984 2565 2268 
Q 2250 2553 1709 2553 
Q 1456 2553 1204 2497 
Q 953 2441 691 2322 
L 691 4666 
z
" transform="scale(0.015625)"/>
       </defs>
       <use xlink:href="#DejaVuSans-35"/>
      </g>
     </g>
    </g>
    <g id="xtick_6">
     <g id="line2d_6">
      <g>
       <use xlink:href="#m82c4e40bb7" x="637.963213" y="379.96" style="stroke: #000000; stroke-width: 0.8"/>
      </g>
     </g>
     <g id="text_6">
      <!-- 6 -->
      <g transform="translate(632.873213 399.1175) scale(0.16 -0.16)">
       <defs>
        <path id="DejaVuSans-36" d="M 2113 2584 
Q 1688 2584 1439 2293 
Q 1191 2003 1191 1497 
Q 1191 994 1439 701 
Q 1688 409 2113 409 
Q 2538 409 2786 701 
Q 3034 994 3034 1497 
Q 3034 2003 2786 2293 
Q 2538 2584 2113 2584 
z
M 3366 4563 
L 3366 3988 
Q 3128 4100 2886 4159 
Q 2644 4219 2406 4219 
Q 1781 4219 1451 3797 
Q 1122 3375 1075 2522 
Q 1259 2794 1537 2939 
Q 1816 3084 2150 3084 
Q 2853 3084 3261 2657 
Q 3669 2231 3669 1497 
Q 3669 778 3244 343 
Q 2819 -91 2113 -91 
Q 1303 -91 875 529 
Q 447 1150 447 2328 
Q 447 3434 972 4092 
Q 1497 4750 2381 4750 
Q 2619 4750 2861 4703 
Q 3103 4656 3366 4563 
z
" transform="scale(0.015625)"/>
       </defs>
       <use xlink:href="#DejaVuSans-36"/>
      </g>
     </g>
    </g>
    <g id="text_7">
     <!-- Projected Time (s) -->
     <g transform="translate(324.302187 417.082812) scale(0.14 -0.14)">
      <defs>
       <path id="DejaVuSans-50" d="M 1259 4147 
L 1259 2394 
L 2053 2394 
Q 2494 2394 2734 2622 
Q 2975 2850 2975 3272 
Q 2975 3691 2734 3919 
Q 2494 4147 2053 4147 
L 1259 4147 
z
M 628 4666 
L 2053 4666 
Q 2838 4666 3239 4311 
Q 3641 3956 3641 3272 
Q 3641 2581 3239 2228 
Q 2838 1875 2053 1875 
L 1259 1875 
L 1259 0 
L 628 0 
L 628 4666 
z
" transform="scale(0.015625)"/>
       <path id="DejaVuSans-72" d="M 2631 2963 
Q 2534 3019 2420 3045 
Q 2306 3072 2169 3072 
Q 1681 3072 1420 2755 
Q 1159 2438 1159 1844 
L 1159 0 
L 581 0 
L 581 3500 
L 1159 3500 
L 1159 2956 
Q 1341 3275 1631 3429 
Q 1922 3584 2338 3584 
Q 2397 3584 2469 3576 
Q 2541 3569 2628 3553 
L 2631 2963 
z
" transform="scale(0.015625)"/>
       <path id="DejaVuSans-6f" d="M 1959 3097 
Q 1497 3097 1228 2736 
Q 959 2375 959 1747 
Q 959 1119 1226 758 
Q 1494 397 1959 397 
Q 2419 397 2687 759 
Q 2956 1122 2956 1747 
Q 2956 2369 2687 2733 
Q 2419 3097 1959 3097 
z
M 1959 3584 
Q 2709 3584 3137 3096 
Q 3566 2609 3566 1747 
Q 3566 888 3137 398 
Q 2709 -91 1959 -91 
Q 1206 -91 779 398 
Q 353 888 353 1747 
Q 353 2609 779 3096 
Q 1206 3584 1959 3584 
z
" transform="scale(0.015625)"/>
       <path id="DejaVuSans-6a" d="M 603 3500 
L 1178 3500 
L 1178 -63 
Q 1178 -731 923 -1031 
Q 669 -1331 103 -1331 
L -116 -1331 
L -116 -844 
L 38 -844 
Q 366 -844 484 -692 
Q 603 -541 603 -63 
L 603 3500 
z
M 603 4863 
L 1178 4863 
L 1178 4134 
L 603 4134 
L 603 4863 
z
" transform="scale(0.015625)"/>
       <path id="DejaVuSans-65" d="M 3597 1894 
L 3597 1613 
L 953 1613 
Q 991 1019 1311 708 
Q 1631 397 2203 397 
Q 2534 397 2845 478 
Q 3156 559 3463 722 
L 3463 178 
Q 3153 47 2828 -22 
Q 2503 -91 2169 -91 
Q 1331 -91 842 396 
Q 353 884 353 1716 
Q 353 2575 817 3079 
Q 1281 3584 2069 3584 
Q 2775 3584 3186 3129 
Q 3597 2675 3597 1894 
z
M 3022 2063 
Q 3016 2534 2758 2815 
Q 2500 3097 2075 3097 
Q 1594 3097 1305 2825 
Q 1016 2553 972 2059 
L 3022 2063 
z
" transform="scale(0.015625)"/>
       <path id="DejaVuSans-63" d="M 3122 3366 
L 3122 2828 
Q 2878 2963 2633 3030 
Q 2388 3097 2138 3097 
Q 1578 3097 1268 2742 
Q 959 2388 959 1747 
Q 959 1106 1268 751 
Q 1578 397 2138 397 
Q 2388 397 2633 464 
Q 2878 531 3122 666 
L 3122 134 
Q 2881 22 2623 -34 
Q 2366 -91 2075 -91 
Q 1284 -91 818 406 
Q 353 903 353 1747 
Q 353 2603 823 3093 
Q 1294 3584 2113 3584 
Q 2378 3584 2631 3529 
Q 2884 3475 3122 3366 
z
" transform="scale(0.015625)"/>
       <path id="DejaVuSans-74" d="M 1172 4494 
L 1172 3500 
L 2356 3500 
L 2356 3053 
L 1172 3053 
L 1172 1153 
Q 1172 725 1289 603 
Q 1406 481 1766 481 
L 2356 481 
L 2356 0 
L 1766 0 
Q 1100 0 847 248 
Q 594 497 594 1153 
L 594 3053 
L 172 3053 
L 172 3500 
L 594 3500 
L 594 4494 
L 1172 4494 
z
" transform="scale(0.015625)"/>
       <path id="DejaVuSans-64" d="M 2906 2969 
L 2906 4863 
L 3481 4863 
L 3481 0 
L 2906 0 
L 2906 525 
Q 2725 213 2448 61 
Q 2172 -91 1784 -91 
Q 1150 -91 751 415 
Q 353 922 353 1747 
Q 353 2572 751 3078 
Q 1150 3584 1784 3584 
Q 2172 3584 2448 3432 
Q 2725 3281 2906 2969 
z
M 947 1747 
Q 947 1113 1208 752 
Q 1469 391 1925 391 
Q 2381 391 2643 752 
Q 2906 1113 2906 1747 
Q 2906 2381 2643 2742 
Q 2381 3103 1925 3103 
Q 1469 3103 1208 2742 
Q 947 2381 947 1747 
z
" transform="scale(0.015625)"/>
       <path id="DejaVuSans-20" transform="scale(0.015625)"/>
       <path id="DejaVuSans-54" d="M -19 4666 
L 3928 4666 
L 3928 4134 
L 2272 4134 
L 2272 0 
L 1638 0 
L 1638 4134 
L -19 4134 
L -19 4666 
z
" transform="scale(0.015625)"/>
       <path id="DejaVuSans-69" d="M 603 3500 
L 1178 3500 
L 1178 0 
L 603 0 
L 603 3500 
z
M 603 4863 
L 1178 4863 
L 1178 4134 
L 603 4134 
L 603 4863 
z
" transform="scale(0.015625)"/>
       <path id="DejaVuSans-6d" d="M 3328 2828 
Q 3544 3216 3844 3400 
Q 4144 3584 4550 3584 
Q 5097 3584 5394 3201 
Q 5691 2819 5691 2113 
L 5691 0 
L 5113 0 
L 5113 2094 
Q 5113 2597 4934 2840 
Q 4756 3084 4391 3084 
Q 3944 3084 3684 2787 
Q 3425 2491 3425 1978 
L 3425 0 
L 2847 0 
L 2847 2094 
Q 2847 2600 2669 2842 
Q 2491 3084 2119 3084 
Q 1678 3084 1418 2786 
Q 1159 2488 1159 1978 
L 1159 0 
L 581 0 
L 581 3500 
L 1159 3500 
L 1159 2956 
Q 1356 3278 1631 3431 
Q 1906 3584 2284 3584 
Q 2666 3584 2933 3390 
Q 3200 3197 3328 2828 
z
" transform="scale(0.015625)"/>
       <path id="DejaVuSans-28" d="M 1984 4856 
Q 1566 4138 1362 3434 
Q 1159 2731 1159 2009 
Q 1159 1288 1364 580 
Q 1569 -128 1984 -844 
L 1484 -844 
Q 1016 -109 783 600 
Q 550 1309 550 2009 
Q 550 2706 781 3412 
Q 1013 4119 1484 4856 
L 1984 4856 
z
" transform="scale(0.015625)"/>
       <path id="DejaVuSans-73" d="M 2834 3397 
L 2834 2853 
Q 2591 2978 2328 3040 
Q 2066 3103 1784 3103 
Q 1356 3103 1142 2972 
Q 928 2841 928 2578 
Q 928 2378 1081 2264 
Q 1234 2150 1697 2047 
L 1894 2003 
Q 2506 1872 2764 1633 
Q 3022 1394 3022 966 
Q 3022 478 2636 193 
Q 2250 -91 1575 -91 
Q 1294 -91 989 -36 
Q 684 19 347 128 
L 347 722 
Q 666 556 975 473 
Q 1284 391 1588 391 
Q 1994 391 2212 530 
Q 2431 669 2431 922 
Q 2431 1156 2273 1281 
Q 2116 1406 1581 1522 
L 1381 1569 
Q 847 1681 609 1914 
Q 372 2147 372 2553 
Q 372 3047 722 3315 
Q 1072 3584 1716 3584 
Q 2034 3584 2315 3537 
Q 2597 3491 2834 3397 
z
" transform="scale(0.015625)"/>
       <path id="DejaVuSans-29" d="M 513 4856 
L 1013 4856 
Q 1481 4119 1714 3412 
Q 1947 2706 1947 2009 
Q 1947 1309 1714 600 
Q 1481 -109 1013 -844 
L 513 -844 
Q 928 -128 1133 580 
Q 1338 1288 1338 2009 
Q 1338 2731 1133 3434 
Q 928 4138 513 4856 
z
" transform="scale(0.015625)"/>
      </defs>
      <use xlink:href="#DejaVuSans-50"/>
      <use xlink:href="#DejaVuSans-72" x="58.552734"/>
      <use xlink:href="#DejaVuSans-6f" x="97.416016"/>
      <use xlink:href="#DejaVuSans-6a" x="158.597656"/>
      <use xlink:href="#DejaVuSans-65" x="186.380859"/>
      <use xlink:href="#DejaVuSans-63" x="247.904297"/>
      <use xlink:href="#DejaVuSans-74" x="302.884766"/>
      <use xlink:href="#DejaVuSans-65" x="342.09375"/>
      <use xlink:href="#DejaVuSans-64" x="403.617188"/>
      <use xlink:href="#DejaVuSans-20" x="467.09375"/>
      <use xlink:href="#DejaVuSans-54" x="498.880859"/>
      <use xlink:href="#DejaVuSans-69" x="556.839844"/>
      <use xlink:href="#DejaVuSans-6d" x="584.623047"/>
      <use xlink:href="#DejaVuSans-65" x="682.035156"/>
      <use xlink:href="#DejaVuSans-20" x="743.558594"/>
      <use xlink:href="#DejaVuSans-28" x="775.345703"/>
      <use xlink:href="#DejaVuSans-73" x="814.359375"/>
      <use xlink:href="#DejaVuSans-29" x="866.458984"/>
     </g>
    </g>
   </g>
   <g id="matplotlib.axis_2">
    <g id="ytick_1">
     <g id="line2d_7">
      <defs>
       <path id="md39bd4029c" d="M 0 0 
L -3.5 0 
" style="stroke: #000000; stroke-width: 0.8"/>
      </defs>
      <g>
       <use xlink:href="#md39bd4029c" x="68.33" y="379.96" style="stroke: #000000; stroke-width: 0.8"/>
      </g>
     </g>
     <g id="text_8">
      <!-- 0 -->
      <g transform="translate(51.15 386.03875) scale(0.16 -0.16)">
       <defs>
        <path id="DejaVuSans-30" d="M 2034 4250 
Q 1547 4250 1301 3770 
Q 1056 3291 1056 2328 
Q 1056 1369 1301 889 
Q 1547 409 2034 409 
Q 2525 409 2770 889 
Q 3016 1369 3016 2328 
Q 3016 3291 2770 3770 
Q 2525 4250 2034 4250 
z
M 2034 4750 
Q 2819 4750 3233 4129 
Q 3647 3509 3647 2328 
Q 3647 1150 3233 529 
Q 2819 -91 2034 -91 
Q 1250 -91 836 529 
Q 422 1150 422 2328 
Q 422 3509 836 4129 
Q 1250 4750 2034 4750 
z
" transform="scale(0.015625)"/>
       </defs>
       <use xlink:href="#DejaVuSans-30"/>
      </g>
     </g>
    </g>
    <g id="ytick_2">
     <g id="line2d_8">
      <g>
       <use xlink:href="#md39bd4029c" x="68.33" y="333.759797" style="stroke: #000000; stroke-width: 0.8"/>
      </g>
     </g>
     <g id="text_9">
      <!-- 25 -->
      <g transform="translate(40.97 339.838547) scale(0.16 -0.16)">
       <use xlink:href="#DejaVuSans-32"/>
       <use xlink:href="#DejaVuSans-35" x="63.623047"/>
      </g>
     </g>
    </g>
    <g id="ytick_3">
     <g id="line2d_9">
      <g>
       <use xlink:href="#md39bd4029c" x="68.33" y="287.559594" style="stroke: #000000; stroke-width: 0.8"/>
      </g>
     </g>
     <g id="text_10">
      <!-- 50 -->
      <g transform="translate(40.97 293.638344) scale(0.16 -0.16)">
       <use xlink:href="#DejaVuSans-35"/>
       <use xlink:href="#DejaVuSans-30" x="63.623047"/>
      </g>
     </g>
    </g>
    <g id="ytick_4">
     <g id="line2d_10">
      <g>
       <use xlink:href="#md39bd4029c" x="68.33" y="241.359391" style="stroke: #000000; stroke-width: 0.8"/>
      </g>
     </g>
     <g id="text_11">
      <!-- 75 -->
      <g transform="translate(40.97 247.438141) scale(0.16 -0.16)">
       <defs>
        <path id="DejaVuSans-37" d="M 525 4666 
L 3525 4666 
L 3525 4397 
L 1831 0 
L 1172 0 
L 2766 4134 
L 525 4134 
L 525 4666 
z
" transform="scale(0.015625)"/>
       </defs>
       <use xlink:href="#DejaVuSans-37"/>
       <use xlink:href="#DejaVuSans-35" x="63.623047"/>
      </g>
     </g>
    </g>
    <g id="ytick_5">
     <g id="line2d_11">
      <g>
       <use xlink:href="#md39bd4029c" x="68.33" y="195.159188" style="stroke: #000000; stroke-width: 0.8"/>
      </g>
     </g>
     <g id="text_12">
      <!-- 100 -->
      <g transform="translate(30.79 201.237938) scale(0.16 -0.16)">
       <use xlink:href="#DejaVuSans-31"/>
       <use xlink:href="#DejaVuSans-30" x="63.623047"/>
       <use xlink:href="#DejaVuSans-30" x="127.246094"/>
      </g>
     </g>
    </g>
    <g id="ytick_6">
     <g id="line2d_12">
      <g>
       <use xlink:href="#md39bd4029c" x="68.33" y="148.958985" style="stroke: #000000; stroke-width: 0.8"/>
      </g>
     </g>
     <g id="text_13">
      <!-- 125 -->
      <g transform="translate(30.79 155.037735) scale(0.16 -0.16)">
       <use xlink:href="#DejaVuSans-31"/>
       <use xlink:href="#DejaVuSans-32" x="63.623047"/>
       <use xlink:href="#DejaVuSans-35" x="127.246094"/>
      </g>
     </g>
    </g>
    <g id="ytick_7">
     <g id="line2d_13">
      <g>
       <use xlink:href="#md39bd4029c" x="68.33" y="102.758782" style="stroke: #000000; stroke-width: 0.8"/>
      </g>
     </g>
     <g id="text_14">
      <!-- 150 -->
      <g transform="translate(30.79 108.837532) scale(0.16 -0.16)">
       <use xlink:href="#DejaVuSans-31"/>
       <use xlink:href="#DejaVuSans-35" x="63.623047"/>
       <use xlink:href="#DejaVuSans-30" x="127.246094"/>
      </g>
     </g>
    </g>
    <g id="ytick_8">
     <g id="line2d_14">
      <g>
       <use xlink:href="#md39bd4029c" x="68.33" y="56.558579" style="stroke: #000000; stroke-width: 0.8"/>
      </g>
     </g>
     <g id="text_15">
      <!-- 175 -->
      <g transform="translate(30.79 62.637329) scale(0.16 -0.16)">
       <use xlink:href="#DejaVuSans-31"/>
       <use xlink:href="#DejaVuSans-37" x="63.623047"/>
       <use xlink:href="#DejaVuSans-35" x="127.246094"/>
      </g>
     </g>
    </g>
    <g id="text_16">
     <!-- Magnitude Distance MSE (m) -->
     <g transform="translate(23.878438 306.774687) rotate(-90) scale(0.14 -0.14)">
      <defs>
       <path id="DejaVuSans-4d" d="M 628 4666 
L 1569 4666 
L 2759 1491 
L 3956 4666 
L 4897 4666 
L 4897 0 
L 4281 0 
L 4281 4097 
L 3078 897 
L 2444 897 
L 1241 4097 
L 1241 0 
L 628 0 
L 628 4666 
z
" transform="scale(0.015625)"/>
       <path id="DejaVuSans-61" d="M 2194 1759 
Q 1497 1759 1228 1600 
Q 959 1441 959 1056 
Q 959 750 1161 570 
Q 1363 391 1709 391 
Q 2188 391 2477 730 
Q 2766 1069 2766 1631 
L 2766 1759 
L 2194 1759 
z
M 3341 1997 
L 3341 0 
L 2766 0 
L 2766 531 
Q 2569 213 2275 61 
Q 1981 -91 1556 -91 
Q 1019 -91 701 211 
Q 384 513 384 1019 
Q 384 1609 779 1909 
Q 1175 2209 1959 2209 
L 2766 2209 
L 2766 2266 
Q 2766 2663 2505 2880 
Q 2244 3097 1772 3097 
Q 1472 3097 1187 3025 
Q 903 2953 641 2809 
L 641 3341 
Q 956 3463 1253 3523 
Q 1550 3584 1831 3584 
Q 2591 3584 2966 3190 
Q 3341 2797 3341 1997 
z
" transform="scale(0.015625)"/>
       <path id="DejaVuSans-67" d="M 2906 1791 
Q 2906 2416 2648 2759 
Q 2391 3103 1925 3103 
Q 1463 3103 1205 2759 
Q 947 2416 947 1791 
Q 947 1169 1205 825 
Q 1463 481 1925 481 
Q 2391 481 2648 825 
Q 2906 1169 2906 1791 
z
M 3481 434 
Q 3481 -459 3084 -895 
Q 2688 -1331 1869 -1331 
Q 1566 -1331 1297 -1286 
Q 1028 -1241 775 -1147 
L 775 -588 
Q 1028 -725 1275 -790 
Q 1522 -856 1778 -856 
Q 2344 -856 2625 -561 
Q 2906 -266 2906 331 
L 2906 616 
Q 2728 306 2450 153 
Q 2172 0 1784 0 
Q 1141 0 747 490 
Q 353 981 353 1791 
Q 353 2603 747 3093 
Q 1141 3584 1784 3584 
Q 2172 3584 2450 3431 
Q 2728 3278 2906 2969 
L 2906 3500 
L 3481 3500 
L 3481 434 
z
" transform="scale(0.015625)"/>
       <path id="DejaVuSans-6e" d="M 3513 2113 
L 3513 0 
L 2938 0 
L 2938 2094 
Q 2938 2591 2744 2837 
Q 2550 3084 2163 3084 
Q 1697 3084 1428 2787 
Q 1159 2491 1159 1978 
L 1159 0 
L 581 0 
L 581 3500 
L 1159 3500 
L 1159 2956 
Q 1366 3272 1645 3428 
Q 1925 3584 2291 3584 
Q 2894 3584 3203 3211 
Q 3513 2838 3513 2113 
z
" transform="scale(0.015625)"/>
       <path id="DejaVuSans-75" d="M 544 1381 
L 544 3500 
L 1119 3500 
L 1119 1403 
Q 1119 906 1312 657 
Q 1506 409 1894 409 
Q 2359 409 2629 706 
Q 2900 1003 2900 1516 
L 2900 3500 
L 3475 3500 
L 3475 0 
L 2900 0 
L 2900 538 
Q 2691 219 2414 64 
Q 2138 -91 1772 -91 
Q 1169 -91 856 284 
Q 544 659 544 1381 
z
M 1991 3584 
L 1991 3584 
z
" transform="scale(0.015625)"/>
       <path id="DejaVuSans-44" d="M 1259 4147 
L 1259 519 
L 2022 519 
Q 2988 519 3436 956 
Q 3884 1394 3884 2338 
Q 3884 3275 3436 3711 
Q 2988 4147 2022 4147 
L 1259 4147 
z
M 628 4666 
L 1925 4666 
Q 3281 4666 3915 4102 
Q 4550 3538 4550 2338 
Q 4550 1131 3912 565 
Q 3275 0 1925 0 
L 628 0 
L 628 4666 
z
" transform="scale(0.015625)"/>
       <path id="DejaVuSans-53" d="M 3425 4513 
L 3425 3897 
Q 3066 4069 2747 4153 
Q 2428 4238 2131 4238 
Q 1616 4238 1336 4038 
Q 1056 3838 1056 3469 
Q 1056 3159 1242 3001 
Q 1428 2844 1947 2747 
L 2328 2669 
Q 3034 2534 3370 2195 
Q 3706 1856 3706 1288 
Q 3706 609 3251 259 
Q 2797 -91 1919 -91 
Q 1588 -91 1214 -16 
Q 841 59 441 206 
L 441 856 
Q 825 641 1194 531 
Q 1563 422 1919 422 
Q 2459 422 2753 634 
Q 3047 847 3047 1241 
Q 3047 1584 2836 1778 
Q 2625 1972 2144 2069 
L 1759 2144 
Q 1053 2284 737 2584 
Q 422 2884 422 3419 
Q 422 4038 858 4394 
Q 1294 4750 2059 4750 
Q 2388 4750 2728 4690 
Q 3069 4631 3425 4513 
z
" transform="scale(0.015625)"/>
       <path id="DejaVuSans-45" d="M 628 4666 
L 3578 4666 
L 3578 4134 
L 1259 4134 
L 1259 2753 
L 3481 2753 
L 3481 2222 
L 1259 2222 
L 1259 531 
L 3634 531 
L 3634 0 
L 628 0 
L 628 4666 
z
" transform="scale(0.015625)"/>
      </defs>
      <use xlink:href="#DejaVuSans-4d"/>
      <use xlink:href="#DejaVuSans-61" x="86.279297"/>
      <use xlink:href="#DejaVuSans-67" x="147.558594"/>
      <use xlink:href="#DejaVuSans-6e" x="211.035156"/>
      <use xlink:href="#DejaVuSans-69" x="274.414062"/>
      <use xlink:href="#DejaVuSans-74" x="302.197266"/>
      <use xlink:href="#DejaVuSans-75" x="341.40625"/>
      <use xlink:href="#DejaVuSans-64" x="404.785156"/>
      <use xlink:href="#DejaVuSans-65" x="468.261719"/>
      <use xlink:href="#DejaVuSans-20" x="529.785156"/>
      <use xlink:href="#DejaVuSans-44" x="561.572266"/>
      <use xlink:href="#DejaVuSans-69" x="638.574219"/>
      <use xlink:href="#DejaVuSans-73" x="666.357422"/>
      <use xlink:href="#DejaVuSans-74" x="718.457031"/>
      <use xlink:href="#DejaVuSans-61" x="757.666016"/>
      <use xlink:href="#DejaVuSans-6e" x="818.945312"/>
      <use xlink:href="#DejaVuSans-63" x="882.324219"/>
      <use xlink:href="#DejaVuSans-65" x="937.304688"/>
      <use xlink:href="#DejaVuSans-20" x="998.828125"/>
      <use xlink:href="#DejaVuSans-4d" x="1030.615234"/>
      <use xlink:href="#DejaVuSans-53" x="1116.894531"/>
      <use xlink:href="#DejaVuSans-45" x="1180.371094"/>
      <use xlink:href="#DejaVuSans-20" x="1243.554688"/>
      <use xlink:href="#DejaVuSans-28" x="1275.341797"/>
      <use xlink:href="#DejaVuSans-6d" x="1314.355469"/>
      <use xlink:href="#DejaVuSans-29" x="1411.767578"/>
     </g>
    </g>
   </g>
   <g id="LineCollection_1">
    <path d="M 110.710444 371.790871 
L 110.710444 371.240678 
" clip-path="url(#pb71a55f16a)" style="fill: none; stroke: #000000; stroke-width: 1.5"/>
    <path d="M 156.215574 354.264847 
L 156.215574 351.978703 
" clip-path="url(#pb71a55f16a)" style="fill: none; stroke: #000000; stroke-width: 1.5"/>
    <path d="M 201.720703 336.903191 
L 201.720703 332.843506 
" clip-path="url(#pb71a55f16a)" style="fill: none; stroke: #000000; stroke-width: 1.5"/>
    <path d="M 247.225833 318.970418 
L 247.225833 313.179923 
" clip-path="url(#pb71a55f16a)" style="fill: none; stroke: #000000; stroke-width: 1.5"/>
    <path d="M 292.730963 300.401362 
L 292.730963 292.925939 
" clip-path="url(#pb71a55f16a)" style="fill: none; stroke: #000000; stroke-width: 1.5"/>
    <path d="M 338.236092 281.221657 
L 338.236092 272.106535 
" clip-path="url(#pb71a55f16a)" style="fill: none; stroke: #000000; stroke-width: 1.5"/>
    <path d="M 383.741222 261.416842 
L 383.741222 250.701529 
" clip-path="url(#pb71a55f16a)" style="fill: none; stroke: #000000; stroke-width: 1.5"/>
    <path d="M 429.246352 240.974417 
L 429.246352 228.701169 
" clip-path="url(#pb71a55f16a)" style="fill: none; stroke: #000000; stroke-width: 1.5"/>
    <path d="M 474.751481 219.867921 
L 474.751481 206.085905 
" clip-path="url(#pb71a55f16a)" style="fill: none; stroke: #000000; stroke-width: 1.5"/>
    <path d="M 520.256611 198.136491 
L 520.256611 182.894825 
" clip-path="url(#pb71a55f16a)" style="fill: none; stroke: #000000; stroke-width: 1.5"/>
    <path d="M 565.761741 175.818549 
L 565.761741 159.16861 
" clip-path="url(#pb71a55f16a)" style="fill: none; stroke: #000000; stroke-width: 1.5"/>
    <path d="M 611.26687 152.992785 
L 611.26687 134.98307 
" clip-path="url(#pb71a55f16a)" style="fill: none; stroke: #000000; stroke-width: 1.5"/>
   </g>
   <g id="line2d_15">
    <defs>
     <path id="mffdeb172dd" d="M 5 0 
L -5 -0 
" style="stroke: #000000"/>
    </defs>
    <g clip-path="url(#pb71a55f16a)">
     <use xlink:href="#mffdeb172dd" x="110.710444" y="371.790871" style="stroke: #000000"/>
     <use xlink:href="#mffdeb172dd" x="156.215574" y="354.264847" style="stroke: #000000"/>
     <use xlink:href="#mffdeb172dd" x="201.720703" y="336.903191" style="stroke: #000000"/>
     <use xlink:href="#mffdeb172dd" x="247.225833" y="318.970418" style="stroke: #000000"/>
     <use xlink:href="#mffdeb172dd" x="292.730963" y="300.401362" style="stroke: #000000"/>
     <use xlink:href="#mffdeb172dd" x="338.236092" y="281.221657" style="stroke: #000000"/>
     <use xlink:href="#mffdeb172dd" x="383.741222" y="261.416842" style="stroke: #000000"/>
     <use xlink:href="#mffdeb172dd" x="429.246352" y="240.974417" style="stroke: #000000"/>
     <use xlink:href="#mffdeb172dd" x="474.751481" y="219.867921" style="stroke: #000000"/>
     <use xlink:href="#mffdeb172dd" x="520.256611" y="198.136491" style="stroke: #000000"/>
     <use xlink:href="#mffdeb172dd" x="565.761741" y="175.818549" style="stroke: #000000"/>
     <use xlink:href="#mffdeb172dd" x="611.26687" y="152.992785" style="stroke: #000000"/>
    </g>
   </g>
   <g id="line2d_16">
    <g clip-path="url(#pb71a55f16a)">
     <use xlink:href="#mffdeb172dd" x="110.710444" y="371.240678" style="stroke: #000000"/>
     <use xlink:href="#mffdeb172dd" x="156.215574" y="351.978703" style="stroke: #000000"/>
     <use xlink:href="#mffdeb172dd" x="201.720703" y="332.843506" style="stroke: #000000"/>
     <use xlink:href="#mffdeb172dd" x="247.225833" y="313.179923" style="stroke: #000000"/>
     <use xlink:href="#mffdeb172dd" x="292.730963" y="292.925939" style="stroke: #000000"/>
     <use xlink:href="#mffdeb172dd" x="338.236092" y="272.106535" style="stroke: #000000"/>
     <use xlink:href="#mffdeb172dd" x="383.741222" y="250.701529" style="stroke: #000000"/>
     <use xlink:href="#mffdeb172dd" x="429.246352" y="228.701169" style="stroke: #000000"/>
     <use xlink:href="#mffdeb172dd" x="474.751481" y="206.085905" style="stroke: #000000"/>
     <use xlink:href="#mffdeb172dd" x="520.256611" y="182.894825" style="stroke: #000000"/>
     <use xlink:href="#mffdeb172dd" x="565.761741" y="159.16861" style="stroke: #000000"/>
     <use xlink:href="#mffdeb172dd" x="611.26687" y="134.98307" style="stroke: #000000"/>
    </g>
   </g>
   <g id="LineCollection_2">
    <path d="M 137.406787 369.412401 
L 137.406787 368.667864 
" clip-path="url(#pb71a55f16a)" style="fill: none; stroke: #000000; stroke-width: 1.5"/>
    <path d="M 182.911917 344.174089 
L 182.911917 341.067695 
" clip-path="url(#pb71a55f16a)" style="fill: none; stroke: #000000; stroke-width: 1.5"/>
    <path d="M 228.417046 319.031638 
L 228.417046 313.478762 
" clip-path="url(#pb71a55f16a)" style="fill: none; stroke: #000000; stroke-width: 1.5"/>
    <path d="M 273.922176 293.796832 
L 273.922176 285.819817 
" clip-path="url(#pb71a55f16a)" style="fill: none; stroke: #000000; stroke-width: 1.5"/>
    <path d="M 319.427306 268.440759 
L 319.427306 258.072846 
" clip-path="url(#pb71a55f16a)" style="fill: none; stroke: #000000; stroke-width: 1.5"/>
    <path d="M 364.932435 242.984179 
L 364.932435 230.262373 
" clip-path="url(#pb71a55f16a)" style="fill: none; stroke: #000000; stroke-width: 1.5"/>
    <path d="M 410.437565 217.433094 
L 410.437565 202.399591 
" clip-path="url(#pb71a55f16a)" style="fill: none; stroke: #000000; stroke-width: 1.5"/>
    <path d="M 455.942694 191.800612 
L 455.942694 174.502283 
" clip-path="url(#pb71a55f16a)" style="fill: none; stroke: #000000; stroke-width: 1.5"/>
    <path d="M 501.447824 166.096369 
L 501.447824 146.584795 
" clip-path="url(#pb71a55f16a)" style="fill: none; stroke: #000000; stroke-width: 1.5"/>
    <path d="M 546.952954 140.333378 
L 546.952954 118.663835 
" clip-path="url(#pb71a55f16a)" style="fill: none; stroke: #000000; stroke-width: 1.5"/>
    <path d="M 592.458083 114.524419 
L 592.458083 90.755676 
" clip-path="url(#pb71a55f16a)" style="fill: none; stroke: #000000; stroke-width: 1.5"/>
    <path d="M 637.963213 88.676359 
L 637.963213 62.871071 
" clip-path="url(#pb71a55f16a)" style="fill: none; stroke: #000000; stroke-width: 1.5"/>
   </g>
   <g id="line2d_17">
    <g clip-path="url(#pb71a55f16a)">
     <use xlink:href="#mffdeb172dd" x="137.406787" y="369.412401" style="stroke: #000000"/>
     <use xlink:href="#mffdeb172dd" x="182.911917" y="344.174089" style="stroke: #000000"/>
     <use xlink:href="#mffdeb172dd" x="228.417046" y="319.031638" style="stroke: #000000"/>
     <use xlink:href="#mffdeb172dd" x="273.922176" y="293.796832" style="stroke: #000000"/>
     <use xlink:href="#mffdeb172dd" x="319.427306" y="268.440759" style="stroke: #000000"/>
     <use xlink:href="#mffdeb172dd" x="364.932435" y="242.984179" style="stroke: #000000"/>
     <use xlink:href="#mffdeb172dd" x="410.437565" y="217.433094" style="stroke: #000000"/>
     <use xlink:href="#mffdeb172dd" x="455.942694" y="191.800612" style="stroke: #000000"/>
     <use xlink:href="#mffdeb172dd" x="501.447824" y="166.096369" style="stroke: #000000"/>
     <use xlink:href="#mffdeb172dd" x="546.952954" y="140.333378" style="stroke: #000000"/>
     <use xlink:href="#mffdeb172dd" x="592.458083" y="114.524419" style="stroke: #000000"/>
     <use xlink:href="#mffdeb172dd" x="637.963213" y="88.676359" style="stroke: #000000"/>
    </g>
   </g>
   <g id="line2d_18">
    <g clip-path="url(#pb71a55f16a)">
     <use xlink:href="#mffdeb172dd" x="137.406787" y="368.667864" style="stroke: #000000"/>
     <use xlink:href="#mffdeb172dd" x="182.911917" y="341.067695" style="stroke: #000000"/>
     <use xlink:href="#mffdeb172dd" x="228.417046" y="313.478762" style="stroke: #000000"/>
     <use xlink:href="#mffdeb172dd" x="273.922176" y="285.819817" style="stroke: #000000"/>
     <use xlink:href="#mffdeb172dd" x="319.427306" y="258.072846" style="stroke: #000000"/>
     <use xlink:href="#mffdeb172dd" x="364.932435" y="230.262373" style="stroke: #000000"/>
     <use xlink:href="#mffdeb172dd" x="410.437565" y="202.399591" style="stroke: #000000"/>
     <use xlink:href="#mffdeb172dd" x="455.942694" y="174.502283" style="stroke: #000000"/>
     <use xlink:href="#mffdeb172dd" x="501.447824" y="146.584795" style="stroke: #000000"/>
     <use xlink:href="#mffdeb172dd" x="546.952954" y="118.663835" style="stroke: #000000"/>
     <use xlink:href="#mffdeb172dd" x="592.458083" y="90.755676" style="stroke: #000000"/>
     <use xlink:href="#mffdeb172dd" x="637.963213" y="62.871071" style="stroke: #000000"/>
    </g>
   </g>
   <g id="LineCollection_3">
    <path d="M 164.10313 369.090694 
L 164.10313 368.283477 
" clip-path="url(#pb71a55f16a)" style="fill: none; stroke: #000000; stroke-width: 1.5"/>
    <path d="M 209.608259 343.005224 
L 209.608259 339.69996 
" clip-path="url(#pb71a55f16a)" style="fill: none; stroke: #000000; stroke-width: 1.5"/>
    <path d="M 255.113389 316.96245 
L 255.113389 311.071348 
" clip-path="url(#pb71a55f16a)" style="fill: none; stroke: #000000; stroke-width: 1.5"/>
    <path d="M 300.618519 290.777684 
L 300.618519 282.316978 
" clip-path="url(#pb71a55f16a)" style="fill: none; stroke: #000000; stroke-width: 1.5"/>
    <path d="M 346.123648 264.320983 
L 346.123648 253.331063 
" clip-path="url(#pb71a55f16a)" style="fill: none; stroke: #000000; stroke-width: 1.5"/>
    <path d="M 391.628778 237.643228 
L 391.628778 224.165177 
" clip-path="url(#pb71a55f16a)" style="fill: none; stroke: #000000; stroke-width: 1.5"/>
    <path d="M 437.133908 210.782189 
L 437.133908 194.858923 
" clip-path="url(#pb71a55f16a)" style="fill: none; stroke: #000000; stroke-width: 1.5"/>
    <path d="M 482.639037 183.757001 
L 482.639037 165.435782 
" clip-path="url(#pb71a55f16a)" style="fill: none; stroke: #000000; stroke-width: 1.5"/>
    <path d="M 528.144167 156.584312 
L 528.144167 135.918149 
" clip-path="url(#pb71a55f16a)" style="fill: none; stroke: #000000; stroke-width: 1.5"/>
    <path d="M 573.649297 129.293731 
L 573.649297 106.338765 
" clip-path="url(#pb71a55f16a)" style="fill: none; stroke: #000000; stroke-width: 1.5"/>
    <path d="M 619.154426 101.916701 
L 619.154426 76.732103 
" clip-path="url(#pb71a55f16a)" style="fill: none; stroke: #000000; stroke-width: 1.5"/>
    <path d="M 664.659556 74.472672 
L 664.659556 47.121905 
" clip-path="url(#pb71a55f16a)" style="fill: none; stroke: #000000; stroke-width: 1.5"/>
   </g>
   <g id="line2d_19">
    <g clip-path="url(#pb71a55f16a)">
     <use xlink:href="#mffdeb172dd" x="164.10313" y="369.090694" style="stroke: #000000"/>
     <use xlink:href="#mffdeb172dd" x="209.608259" y="343.005224" style="stroke: #000000"/>
     <use xlink:href="#mffdeb172dd" x="255.113389" y="316.96245" style="stroke: #000000"/>
     <use xlink:href="#mffdeb172dd" x="300.618519" y="290.777684" style="stroke: #000000"/>
     <use xlink:href="#mffdeb172dd" x="346.123648" y="264.320983" style="stroke: #000000"/>
     <use xlink:href="#mffdeb172dd" x="391.628778" y="237.643228" style="stroke: #000000"/>
     <use xlink:href="#mffdeb172dd" x="437.133908" y="210.782189" style="stroke: #000000"/>
     <use xlink:href="#mffdeb172dd" x="482.639037" y="183.757001" style="stroke: #000000"/>
     <use xlink:href="#mffdeb172dd" x="528.144167" y="156.584312" style="stroke: #000000"/>
     <use xlink:href="#mffdeb172dd" x="573.649297" y="129.293731" style="stroke: #000000"/>
     <use xlink:href="#mffdeb172dd" x="619.154426" y="101.916701" style="stroke: #000000"/>
     <use xlink:href="#mffdeb172dd" x="664.659556" y="74.472672" style="stroke: #000000"/>
    </g>
   </g>
   <g id="line2d_20">
    <g clip-path="url(#pb71a55f16a)">
     <use xlink:href="#mffdeb172dd" x="164.10313" y="368.283477" style="stroke: #000000"/>
     <use xlink:href="#mffdeb172dd" x="209.608259" y="339.69996" style="stroke: #000000"/>
     <use xlink:href="#mffdeb172dd" x="255.113389" y="311.071348" style="stroke: #000000"/>
     <use xlink:href="#mffdeb172dd" x="300.618519" y="282.316978" style="stroke: #000000"/>
     <use xlink:href="#mffdeb172dd" x="346.123648" y="253.331063" style="stroke: #000000"/>
     <use xlink:href="#mffdeb172dd" x="391.628778" y="224.165177" style="stroke: #000000"/>
     <use xlink:href="#mffdeb172dd" x="437.133908" y="194.858923" style="stroke: #000000"/>
     <use xlink:href="#mffdeb172dd" x="482.639037" y="165.435782" style="stroke: #000000"/>
     <use xlink:href="#mffdeb172dd" x="528.144167" y="135.918149" style="stroke: #000000"/>
     <use xlink:href="#mffdeb172dd" x="573.649297" y="106.338765" style="stroke: #000000"/>
     <use xlink:href="#mffdeb172dd" x="619.154426" y="76.732103" style="stroke: #000000"/>
     <use xlink:href="#mffdeb172dd" x="664.659556" y="47.121905" style="stroke: #000000"/>
    </g>
   </g>
   <g id="patch_39">
    <path d="M 68.33 379.96 
L 68.33 30.48 
" style="fill: none; stroke: #000000; stroke-width: 0.8; stroke-linejoin: miter; stroke-linecap: square"/>
   </g>
   <g id="patch_40">
    <path d="M 707.04 379.96 
L 707.04 30.48 
" style="fill: none; stroke: #000000; stroke-width: 0.8; stroke-linejoin: miter; stroke-linecap: square"/>
   </g>
   <g id="patch_41">
    <path d="M 68.33 379.96 
L 707.04 379.96 
" style="fill: none; stroke: #000000; stroke-width: 0.8; stroke-linejoin: miter; stroke-linecap: square"/>
   </g>
   <g id="patch_42">
    <path d="M 68.33 30.48 
L 707.04 30.48 
" style="fill: none; stroke: #000000; stroke-width: 0.8; stroke-linejoin: miter; stroke-linecap: square"/>
   </g>
   <g id="text_17">
    <!-- MSE Error Propagation for Predicted Trajectories -->
    <g transform="translate(195.84 24.48) scale(0.16 -0.16)">
     <defs>
      <path id="DejaVuSans-70" d="M 1159 525 
L 1159 -1331 
L 581 -1331 
L 581 3500 
L 1159 3500 
L 1159 2969 
Q 1341 3281 1617 3432 
Q 1894 3584 2278 3584 
Q 2916 3584 3314 3078 
Q 3713 2572 3713 1747 
Q 3713 922 3314 415 
Q 2916 -91 2278 -91 
Q 1894 -91 1617 61 
Q 1341 213 1159 525 
z
M 3116 1747 
Q 3116 2381 2855 2742 
Q 2594 3103 2138 3103 
Q 1681 3103 1420 2742 
Q 1159 2381 1159 1747 
Q 1159 1113 1420 752 
Q 1681 391 2138 391 
Q 2594 391 2855 752 
Q 3116 1113 3116 1747 
z
" transform="scale(0.015625)"/>
      <path id="DejaVuSans-66" d="M 2375 4863 
L 2375 4384 
L 1825 4384 
Q 1516 4384 1395 4259 
Q 1275 4134 1275 3809 
L 1275 3500 
L 2222 3500 
L 2222 3053 
L 1275 3053 
L 1275 0 
L 697 0 
L 697 3053 
L 147 3053 
L 147 3500 
L 697 3500 
L 697 3744 
Q 697 4328 969 4595 
Q 1241 4863 1831 4863 
L 2375 4863 
z
" transform="scale(0.015625)"/>
     </defs>
     <use xlink:href="#DejaVuSans-4d"/>
     <use xlink:href="#DejaVuSans-53" x="86.279297"/>
     <use xlink:href="#DejaVuSans-45" x="149.755859"/>
     <use xlink:href="#DejaVuSans-20" x="212.939453"/>
     <use xlink:href="#DejaVuSans-45" x="244.726562"/>
     <use xlink:href="#DejaVuSans-72" x="307.910156"/>
     <use xlink:href="#DejaVuSans-72" x="347.273438"/>
     <use xlink:href="#DejaVuSans-6f" x="386.136719"/>
     <use xlink:href="#DejaVuSans-72" x="447.318359"/>
     <use xlink:href="#DejaVuSans-20" x="488.431641"/>
     <use xlink:href="#DejaVuSans-50" x="520.21875"/>
     <use xlink:href="#DejaVuSans-72" x="578.771484"/>
     <use xlink:href="#DejaVuSans-6f" x="617.634766"/>
     <use xlink:href="#DejaVuSans-70" x="678.816406"/>
     <use xlink:href="#DejaVuSans-61" x="742.292969"/>
     <use xlink:href="#DejaVuSans-67" x="803.572266"/>
     <use xlink:href="#DejaVuSans-61" x="867.048828"/>
     <use xlink:href="#DejaVuSans-74" x="928.328125"/>
     <use xlink:href="#DejaVuSans-69" x="967.537109"/>
     <use xlink:href="#DejaVuSans-6f" x="995.320312"/>
     <use xlink:href="#DejaVuSans-6e" x="1056.501953"/>
     <use xlink:href="#DejaVuSans-20" x="1119.880859"/>
     <use xlink:href="#DejaVuSans-66" x="1151.667969"/>
     <use xlink:href="#DejaVuSans-6f" x="1186.873047"/>
     <use xlink:href="#DejaVuSans-72" x="1248.054688"/>
     <use xlink:href="#DejaVuSans-20" x="1289.167969"/>
     <use xlink:href="#DejaVuSans-50" x="1320.955078"/>
     <use xlink:href="#DejaVuSans-72" x="1379.507812"/>
     <use xlink:href="#DejaVuSans-65" x="1418.371094"/>
     <use xlink:href="#DejaVuSans-64" x="1479.894531"/>
     <use xlink:href="#DejaVuSans-69" x="1543.371094"/>
     <use xlink:href="#DejaVuSans-63" x="1571.154297"/>
     <use xlink:href="#DejaVuSans-74" x="1626.134766"/>
     <use xlink:href="#DejaVuSans-65" x="1665.34375"/>
     <use xlink:href="#DejaVuSans-64" x="1726.867188"/>
     <use xlink:href="#DejaVuSans-20" x="1790.34375"/>
     <use xlink:href="#DejaVuSans-54" x="1822.130859"/>
     <use xlink:href="#DejaVuSans-72" x="1868.464844"/>
     <use xlink:href="#DejaVuSans-61" x="1909.578125"/>
     <use xlink:href="#DejaVuSans-6a" x="1970.857422"/>
     <use xlink:href="#DejaVuSans-65" x="1998.640625"/>
     <use xlink:href="#DejaVuSans-63" x="2060.164062"/>
     <use xlink:href="#DejaVuSans-74" x="2115.144531"/>
     <use xlink:href="#DejaVuSans-6f" x="2154.353516"/>
     <use xlink:href="#DejaVuSans-72" x="2215.535156"/>
     <use xlink:href="#DejaVuSans-69" x="2256.648438"/>
     <use xlink:href="#DejaVuSans-65" x="2284.431641"/>
     <use xlink:href="#DejaVuSans-73" x="2345.955078"/>
    </g>
   </g>
   <g id="legend_1">
    <g id="patch_43">
     <path d="M 79.53 113.735 
L 193.355 113.735 
Q 196.555 113.735 196.555 110.535 
L 196.555 41.68 
Q 196.555 38.48 193.355 38.48 
L 79.53 38.48 
Q 76.33 38.48 76.33 41.68 
L 76.33 110.535 
Q 76.33 113.735 79.53 113.735 
z
" style="fill: #ffffff; opacity: 0.8; stroke: #cccccc; stroke-linejoin: miter"/>
    </g>
    <g id="patch_44">
     <path d="M 82.73 57.0375 
L 114.73 57.0375 
L 114.73 45.8375 
L 82.73 45.8375 
z
" style="fill: #0000ff"/>
    </g>
    <g id="text_18">
     <!-- Agent 0 -->
     <g transform="translate(127.53 57.0375) scale(0.16 -0.16)">
      <defs>
       <path id="DejaVuSans-41" d="M 2188 4044 
L 1331 1722 
L 3047 1722 
L 2188 4044 
z
M 1831 4666 
L 2547 4666 
L 4325 0 
L 3669 0 
L 3244 1197 
L 1141 1197 
L 716 0 
L 50 0 
L 1831 4666 
z
" transform="scale(0.015625)"/>
      </defs>
      <use xlink:href="#DejaVuSans-41"/>
      <use xlink:href="#DejaVuSans-67" x="68.408203"/>
      <use xlink:href="#DejaVuSans-65" x="131.884766"/>
      <use xlink:href="#DejaVuSans-6e" x="193.408203"/>
      <use xlink:href="#DejaVuSans-74" x="256.787109"/>
      <use xlink:href="#DejaVuSans-20" x="295.996094"/>
      <use xlink:href="#DejaVuSans-30" x="327.783203"/>
     </g>
    </g>
    <g id="patch_45">
     <path d="M 82.73 80.5225 
L 114.73 80.5225 
L 114.73 69.3225 
L 82.73 69.3225 
z
" style="fill: #ffa500"/>
    </g>
    <g id="text_19">
     <!-- Agent 1 -->
     <g transform="translate(127.53 80.5225) scale(0.16 -0.16)">
      <use xlink:href="#DejaVuSans-41"/>
      <use xlink:href="#DejaVuSans-67" x="68.408203"/>
      <use xlink:href="#DejaVuSans-65" x="131.884766"/>
      <use xlink:href="#DejaVuSans-6e" x="193.408203"/>
      <use xlink:href="#DejaVuSans-74" x="256.787109"/>
      <use xlink:href="#DejaVuSans-20" x="295.996094"/>
      <use xlink:href="#DejaVuSans-31" x="327.783203"/>
     </g>
    </g>
    <g id="patch_46">
     <path d="M 82.73 104.0075 
L 114.73 104.0075 
L 114.73 92.8075 
L 82.73 92.8075 
z
" style="fill: #008000"/>
    </g>
    <g id="text_20">
     <!-- Agent 2 -->
     <g transform="translate(127.53 104.0075) scale(0.16 -0.16)">
      <use xlink:href="#DejaVuSans-41"/>
      <use xlink:href="#DejaVuSans-67" x="68.408203"/>
      <use xlink:href="#DejaVuSans-65" x="131.884766"/>
      <use xlink:href="#DejaVuSans-6e" x="193.408203"/>
      <use xlink:href="#DejaVuSans-74" x="256.787109"/>
      <use xlink:href="#DejaVuSans-20" x="295.996094"/>
      <use xlink:href="#DejaVuSans-32" x="327.783203"/>
     </g>
    </g>
   </g>
  </g>
 </g>
 <defs>
  <clipPath id="pb71a55f16a">
   <rect x="68.33" y="30.48" width="638.71" height="349.48"/>
  </clipPath>
 </defs>
</svg>
