<?xml version="1.0" encoding="utf-8" standalone="no"?>
<!DOCTYPE svg PUBLIC "-//W3C//DTD SVG 1.1//EN"
  "http://www.w3.org/Graphics/SVG/1.1/DTD/svg11.dtd">
<svg xmlns:xlink="http://www.w3.org/1999/xlink" width="468pt" height="576pt" viewBox="0 0 468 576" xmlns="http://www.w3.org/2000/svg" version="1.1">
 <metadata>
  <rdf:RDF xmlns:dc="http://purl.org/dc/elements/1.1/" xmlns:cc="http://creativecommons.org/ns#" xmlns:rdf="http://www.w3.org/1999/02/22-rdf-syntax-ns#">
   <cc:Work>
    <dc:type rdf:resource="http://purl.org/dc/dcmitype/StillImage"/>
    <dc:date>2025-03-06T01:00:05.165129</dc:date>
    <dc:format>image/svg+xml</dc:format>
    <dc:creator>
     <cc:Agent>
      <dc:title>Matplotlib v3.9.2, https://matplotlib.org/</dc:title>
     </cc:Agent>
    </dc:creator>
   </cc:Work>
  </rdf:RDF>
 </metadata>
 <defs>
  <style type="text/css">*{stroke-linejoin: round; stroke-linecap: butt}</style>
 </defs>
 <g id="figure_1">
  <g id="patch_1">
   <path d="M 0 576 
L 468 576 
L 468 0 
L 0 0 
z
" style="fill: #ffffff"/>
  </g>
  <g id="axes_1">
   <g id="patch_2">
    <path d="M 81.38 516.04 
L 450.72 516.04 
L 450.72 39.84 
L 81.38 39.84 
z
" style="fill: #ffffff"/>
   </g>
   <g id="PolyCollection_1">
    <defs>
     <path id="m4e0557a2c3" d="M 177.296829 -198.445295 
L 170.133171 -198.445295 
L 169.392651 -201.637913 
L 168.531361 -204.830532 
L 167.536894 -208.023151 
L 166.397081 -211.21577 
L 165.100356 -214.408388 
L 163.636168 -217.601007 
L 161.995422 -220.793626 
L 160.170955 -223.986244 
L 158.158025 -227.178863 
L 155.954784 -230.371482 
L 153.562742 -233.5641 
L 150.987172 -236.756719 
L 148.237451 -239.949338 
L 145.327307 -243.141956 
L 142.274954 -246.334575 
L 139.103093 -249.527194 
L 135.838759 -252.719813 
L 132.513019 -255.912431 
L 129.160494 -259.10505 
L 125.818724 -262.297669 
L 122.527387 -265.490287 
L 119.327375 -268.682906 
L 116.25976 -271.875525 
L 113.364695 -275.068143 
L 110.680262 -278.260762 
L 108.241328 -281.453381 
L 106.078454 -284.645999 
L 104.216888 -287.838618 
L 102.675699 -291.031237 
L 101.467083 -294.223856 
L 100.595878 -297.416474 
L 100.059312 -300.609093 
L 99.847 -303.801712 
L 99.941188 -306.99433 
L 100.317254 -310.186949 
L 100.944434 -313.379568 
L 101.786754 -316.572186 
L 102.804132 -319.764805 
L 103.953617 -322.957424 
L 105.190693 -326.150043 
L 106.47064 -329.342661 
L 107.749857 -332.53528 
L 108.987142 -335.727899 
L 110.144852 -338.920517 
L 111.189934 -342.113136 
L 112.094773 -345.305755 
L 112.837853 -348.498373 
L 113.40421 -351.690992 
L 113.785671 -354.883611 
L 113.980887 -358.076229 
L 113.995156 -361.268848 
L 113.84008 -364.461467 
L 113.533038 -367.654086 
L 113.09653 -370.846704 
L 112.557411 -374.039323 
L 111.946021 -377.231942 
L 111.295279 -380.42456 
L 110.639721 -383.617179 
L 110.014546 -386.809798 
L 109.454673 -390.002416 
L 108.993836 -393.195035 
L 108.663737 -396.387654 
L 108.493274 -399.580272 
L 108.507866 -402.772891 
L 108.72887 -405.96551 
L 109.173129 -409.158129 
L 109.85263 -412.350747 
L 110.774301 -415.543366 
L 111.939932 -418.735985 
L 113.346235 -421.928603 
L 114.985027 -425.121222 
L 116.843534 -428.313841 
L 118.904805 -431.506459 
L 121.148226 -434.699078 
L 123.550107 -437.891697 
L 126.084333 -441.084315 
L 128.723058 -444.276934 
L 131.43741 -447.469553 
L 134.198199 -450.662172 
L 136.976592 -453.85479 
L 139.744752 -457.047409 
L 142.476406 -460.240028 
L 145.147345 -463.432646 
L 147.735822 -466.625265 
L 150.22287 -469.817884 
L 152.592513 -473.010502 
L 154.831877 -476.203121 
L 156.931213 -479.39574 
L 158.883827 -482.588359 
L 160.685937 -485.780977 
L 162.336465 -488.973596 
L 163.836776 -492.166215 
L 165.190374 -495.358833 
L 166.402589 -498.551452 
L 167.480234 -501.744071 
L 168.43128 -504.936689 
L 169.26453 -508.129308 
L 169.989324 -511.321927 
L 170.615265 -514.514545 
L 176.814735 -514.514545 
L 176.814735 -514.514545 
L 177.440676 -511.321927 
L 178.16547 -508.129308 
L 178.99872 -504.936689 
L 179.949766 -501.744071 
L 181.027411 -498.551452 
L 182.239626 -495.358833 
L 183.593224 -492.166215 
L 185.093535 -488.973596 
L 186.744063 -485.780977 
L 188.546173 -482.588359 
L 190.498787 -479.39574 
L 192.598123 -476.203121 
L 194.837487 -473.010502 
L 197.20713 -469.817884 
L 199.694178 -466.625265 
L 202.282655 -463.432646 
L 204.953594 -460.240028 
L 207.685248 -457.047409 
L 210.453408 -453.85479 
L 213.231801 -450.662172 
L 215.99259 -447.469553 
L 218.706942 -444.276934 
L 221.345667 -441.084315 
L 223.879893 -437.891697 
L 226.281774 -434.699078 
L 228.525195 -431.506459 
L 230.586466 -428.313841 
L 232.444973 -425.121222 
L 234.083765 -421.928603 
L 235.490068 -418.735985 
L 236.655699 -415.543366 
L 237.57737 -412.350747 
L 238.256871 -409.158129 
L 238.70113 -405.96551 
L 238.922134 -402.772891 
L 238.936726 -399.580272 
L 238.766263 -396.387654 
L 238.436164 -393.195035 
L 237.975327 -390.002416 
L 237.415454 -386.809798 
L 236.790279 -383.617179 
L 236.134721 -380.42456 
L 235.483979 -377.231942 
L 234.872589 -374.039323 
L 234.33347 -370.846704 
L 233.896962 -367.654086 
L 233.58992 -364.461467 
L 233.434844 -361.268848 
L 233.449113 -358.076229 
L 233.644329 -354.883611 
L 234.02579 -351.690992 
L 234.592147 -348.498373 
L 235.335227 -345.305755 
L 236.240066 -342.113136 
L 237.285148 -338.920517 
L 238.442858 -335.727899 
L 239.680143 -332.53528 
L 240.95936 -329.342661 
L 242.239307 -326.150043 
L 243.476383 -322.957424 
L 244.625868 -319.764805 
L 245.643246 -316.572186 
L 246.485566 -313.379568 
L 247.112746 -310.186949 
L 247.488812 -306.99433 
L 247.583 -303.801712 
L 247.370688 -300.609093 
L 246.834122 -297.416474 
L 245.962917 -294.223856 
L 244.754301 -291.031237 
L 243.213112 -287.838618 
L 241.351546 -284.645999 
L 239.188672 -281.453381 
L 236.749738 -278.260762 
L 234.065305 -275.068143 
L 231.17024 -271.875525 
L 228.102625 -268.682906 
L 224.902613 -265.490287 
L 221.611276 -262.297669 
L 218.269506 -259.10505 
L 214.916981 -255.912431 
L 211.591241 -252.719813 
L 208.326907 -249.527194 
L 205.155046 -246.334575 
L 202.102693 -243.141956 
L 199.192549 -239.949338 
L 196.442828 -236.756719 
L 193.867258 -233.5641 
L 191.475216 -230.371482 
L 189.271975 -227.178863 
L 187.259045 -223.986244 
L 185.434578 -220.793626 
L 183.793832 -217.601007 
L 182.329644 -214.408388 
L 181.032919 -211.21577 
L 179.893106 -208.023151 
L 178.898639 -204.830532 
L 178.037349 -201.637913 
L 177.296829 -198.445295 
z
" style="stroke: #4c4c4c; stroke-width: 1.25"/>
    </defs>
    <g clip-path="url(#pb5351a0f07)">
     <use xlink:href="#m4e0557a2c3" x="0" y="576" style="fill: #2020df; stroke: #4c4c4c; stroke-width: 1.25"/>
    </g>
   </g>
   <g id="PolyCollection_2">
    <defs>
     <path id="m18024d603f" d="M 361.484735 -81.605455 
L 355.285265 -81.605455 
L 354.659324 -84.798073 
L 353.93453 -87.990692 
L 353.10128 -91.183311 
L 352.150234 -94.375929 
L 351.072589 -97.568548 
L 349.860374 -100.761167 
L 348.506776 -103.953785 
L 347.006465 -107.146404 
L 345.355937 -110.339023 
L 343.553827 -113.531641 
L 341.601213 -116.72426 
L 339.501877 -119.916879 
L 337.262513 -123.109498 
L 334.89287 -126.302116 
L 332.405822 -129.494735 
L 329.817345 -132.687354 
L 327.146406 -135.879972 
L 324.414752 -139.072591 
L 321.646592 -142.26521 
L 318.868199 -145.457828 
L 316.10741 -148.650447 
L 313.393058 -151.843066 
L 310.754333 -155.035685 
L 308.220107 -158.228303 
L 305.818226 -161.420922 
L 303.574805 -164.613541 
L 301.513534 -167.806159 
L 299.655027 -170.998778 
L 298.016235 -174.191397 
L 296.609932 -177.384015 
L 295.444301 -180.576634 
L 294.52263 -183.769253 
L 293.843129 -186.961871 
L 293.39887 -190.15449 
L 293.177866 -193.347109 
L 293.163274 -196.539728 
L 293.333737 -199.732346 
L 293.663836 -202.924965 
L 294.124673 -206.117584 
L 294.684546 -209.310202 
L 295.309721 -212.502821 
L 295.965279 -215.69544 
L 296.616021 -218.888058 
L 297.227411 -222.080677 
L 297.76653 -225.273296 
L 298.203038 -228.465914 
L 298.51008 -231.658533 
L 298.665156 -234.851152 
L 298.650887 -238.043771 
L 298.455671 -241.236389 
L 298.07421 -244.429008 
L 297.507853 -247.621627 
L 296.764773 -250.814245 
L 295.859934 -254.006864 
L 294.814852 -257.199483 
L 293.657142 -260.392101 
L 292.419857 -263.58472 
L 291.14064 -266.777339 
L 289.860693 -269.969957 
L 288.623617 -273.162576 
L 287.474132 -276.355195 
L 286.456754 -279.547814 
L 285.614434 -282.740432 
L 284.987254 -285.933051 
L 284.611188 -289.12567 
L 284.517 -292.318288 
L 284.729312 -295.510907 
L 285.265878 -298.703526 
L 286.137083 -301.896144 
L 287.345699 -305.088763 
L 288.886888 -308.281382 
L 290.748454 -311.474001 
L 292.911328 -314.666619 
L 295.350262 -317.859238 
L 298.034695 -321.051857 
L 300.92976 -324.244475 
L 303.997375 -327.437094 
L 307.197387 -330.629713 
L 310.488724 -333.822331 
L 313.830494 -337.01495 
L 317.183019 -340.207569 
L 320.508759 -343.400187 
L 323.773093 -346.592806 
L 326.944954 -349.785425 
L 329.997307 -352.978044 
L 332.907451 -356.170662 
L 335.657172 -359.363281 
L 338.232742 -362.5559 
L 340.624784 -365.748518 
L 342.828025 -368.941137 
L 344.840955 -372.133756 
L 346.665422 -375.326374 
L 348.306168 -378.518993 
L 349.770356 -381.711612 
L 351.067081 -384.90423 
L 352.206894 -388.096849 
L 353.201361 -391.289468 
L 354.062651 -394.482087 
L 354.803171 -397.674705 
L 361.966829 -397.674705 
L 361.966829 -397.674705 
L 362.707349 -394.482087 
L 363.568639 -391.289468 
L 364.563106 -388.096849 
L 365.702919 -384.90423 
L 366.999644 -381.711612 
L 368.463832 -378.518993 
L 370.104578 -375.326374 
L 371.929045 -372.133756 
L 373.941975 -368.941137 
L 376.145216 -365.748518 
L 378.537258 -362.5559 
L 381.112828 -359.363281 
L 383.862549 -356.170662 
L 386.772693 -352.978044 
L 389.825046 -349.785425 
L 392.996907 -346.592806 
L 396.261241 -343.400187 
L 399.586981 -340.207569 
L 402.939506 -337.01495 
L 406.281276 -333.822331 
L 409.572613 -330.629713 
L 412.772625 -327.437094 
L 415.84024 -324.244475 
L 418.735305 -321.051857 
L 421.419738 -317.859238 
L 423.858672 -314.666619 
L 426.021546 -311.474001 
L 427.883112 -308.281382 
L 429.424301 -305.088763 
L 430.632917 -301.896144 
L 431.504122 -298.703526 
L 432.040688 -295.510907 
L 432.253 -292.318288 
L 432.158812 -289.12567 
L 431.782746 -285.933051 
L 431.155566 -282.740432 
L 430.313246 -279.547814 
L 429.295868 -276.355195 
L 428.146383 -273.162576 
L 426.909307 -269.969957 
L 425.62936 -266.777339 
L 424.350143 -263.58472 
L 423.112858 -260.392101 
L 421.955148 -257.199483 
L 420.910066 -254.006864 
L 420.005227 -250.814245 
L 419.262147 -247.621627 
L 418.69579 -244.429008 
L 418.314329 -241.236389 
L 418.119113 -238.043771 
L 418.104844 -234.851152 
L 418.25992 -231.658533 
L 418.566962 -228.465914 
L 419.00347 -225.273296 
L 419.542589 -222.080677 
L 420.153979 -218.888058 
L 420.804721 -215.69544 
L 421.460279 -212.502821 
L 422.085454 -209.310202 
L 422.645327 -206.117584 
L 423.106164 -202.924965 
L 423.436263 -199.732346 
L 423.606726 -196.539728 
L 423.592134 -193.347109 
L 423.37113 -190.15449 
L 422.926871 -186.961871 
L 422.24737 -183.769253 
L 421.325699 -180.576634 
L 420.160068 -177.384015 
L 418.753765 -174.191397 
L 417.114973 -170.998778 
L 415.256466 -167.806159 
L 413.195195 -164.613541 
L 410.951774 -161.420922 
L 408.549893 -158.228303 
L 406.015667 -155.035685 
L 403.376942 -151.843066 
L 400.66259 -148.650447 
L 397.901801 -145.457828 
L 395.123408 -142.26521 
L 392.355248 -139.072591 
L 389.623594 -135.879972 
L 386.952655 -132.687354 
L 384.364178 -129.494735 
L 381.87713 -126.302116 
L 379.507487 -123.109498 
L 377.268123 -119.916879 
L 375.168787 -116.72426 
L 373.216173 -113.531641 
L 371.414063 -110.339023 
L 369.763535 -107.146404 
L 368.263224 -103.953785 
L 366.909626 -100.761167 
L 365.697411 -97.568548 
L 364.619766 -94.375929 
L 363.66872 -91.183311 
L 362.83547 -87.990692 
L 362.110676 -84.798073 
L 361.484735 -81.605455 
z
" style="stroke: #4c4c4c; stroke-width: 1.25"/>
    </defs>
    <g clip-path="url(#pb5351a0f07)">
     <use xlink:href="#m18024d603f" x="0" y="576" style="fill: #df2020; stroke: #4c4c4c; stroke-width: 1.25"/>
    </g>
   </g>
   <g id="matplotlib.axis_1">
    <g id="xtick_1">
     <g id="line2d_1">
      <defs>
       <path id="m09c1f0b7ad" d="M 0 0 
L 0 3.5 
" style="stroke: #000000; stroke-width: 0.8"/>
      </defs>
      <g>
       <use xlink:href="#m09c1f0b7ad" x="173.715" y="516.04" style="stroke: #000000; stroke-width: 0.8"/>
      </g>
     </g>
     <g id="text_1">
      <!-- Good Guy (HRL) -->
      <g transform="translate(109.28375 535.1975) scale(0.16 -0.16)">
       <defs>
        <path id="DejaVuSans-47" d="M 3809 666 
L 3809 1919 
L 2778 1919 
L 2778 2438 
L 4434 2438 
L 4434 434 
Q 4069 175 3628 42 
Q 3188 -91 2688 -91 
Q 1594 -91 976 548 
Q 359 1188 359 2328 
Q 359 3472 976 4111 
Q 1594 4750 2688 4750 
Q 3144 4750 3555 4637 
Q 3966 4525 4313 4306 
L 4313 3634 
Q 3963 3931 3569 4081 
Q 3175 4231 2741 4231 
Q 1884 4231 1454 3753 
Q 1025 3275 1025 2328 
Q 1025 1384 1454 906 
Q 1884 428 2741 428 
Q 3075 428 3337 486 
Q 3600 544 3809 666 
z
" transform="scale(0.015625)"/>
        <path id="DejaVuSans-6f" d="M 1959 3097 
Q 1497 3097 1228 2736 
Q 959 2375 959 1747 
Q 959 1119 1226 758 
Q 1494 397 1959 397 
Q 2419 397 2687 759 
Q 2956 1122 2956 1747 
Q 2956 2369 2687 2733 
Q 2419 3097 1959 3097 
z
M 1959 3584 
Q 2709 3584 3137 3096 
Q 3566 2609 3566 1747 
Q 3566 888 3137 398 
Q 2709 -91 1959 -91 
Q 1206 -91 779 398 
Q 353 888 353 1747 
Q 353 2609 779 3096 
Q 1206 3584 1959 3584 
z
" transform="scale(0.015625)"/>
        <path id="DejaVuSans-64" d="M 2906 2969 
L 2906 4863 
L 3481 4863 
L 3481 0 
L 2906 0 
L 2906 525 
Q 2725 213 2448 61 
Q 2172 -91 1784 -91 
Q 1150 -91 751 415 
Q 353 922 353 1747 
Q 353 2572 751 3078 
Q 1150 3584 1784 3584 
Q 2172 3584 2448 3432 
Q 2725 3281 2906 2969 
z
M 947 1747 
Q 947 1113 1208 752 
Q 1469 391 1925 391 
Q 2381 391 2643 752 
Q 2906 1113 2906 1747 
Q 2906 2381 2643 2742 
Q 2381 3103 1925 3103 
Q 1469 3103 1208 2742 
Q 947 2381 947 1747 
z
" transform="scale(0.015625)"/>
        <path id="DejaVuSans-20" transform="scale(0.015625)"/>
        <path id="DejaVuSans-75" d="M 544 1381 
L 544 3500 
L 1119 3500 
L 1119 1403 
Q 1119 906 1312 657 
Q 1506 409 1894 409 
Q 2359 409 2629 706 
Q 2900 1003 2900 1516 
L 2900 3500 
L 3475 3500 
L 3475 0 
L 2900 0 
L 2900 538 
Q 2691 219 2414 64 
Q 2138 -91 1772 -91 
Q 1169 -91 856 284 
Q 544 659 544 1381 
z
M 1991 3584 
L 1991 3584 
z
" transform="scale(0.015625)"/>
        <path id="DejaVuSans-79" d="M 2059 -325 
Q 1816 -950 1584 -1140 
Q 1353 -1331 966 -1331 
L 506 -1331 
L 506 -850 
L 844 -850 
Q 1081 -850 1212 -737 
Q 1344 -625 1503 -206 
L 1606 56 
L 191 3500 
L 800 3500 
L 1894 763 
L 2988 3500 
L 3597 3500 
L 2059 -325 
z
" transform="scale(0.015625)"/>
        <path id="DejaVuSans-28" d="M 1984 4856 
Q 1566 4138 1362 3434 
Q 1159 2731 1159 2009 
Q 1159 1288 1364 580 
Q 1569 -128 1984 -844 
L 1484 -844 
Q 1016 -109 783 600 
Q 550 1309 550 2009 
Q 550 2706 781 3412 
Q 1013 4119 1484 4856 
L 1984 4856 
z
" transform="scale(0.015625)"/>
        <path id="DejaVuSans-48" d="M 628 4666 
L 1259 4666 
L 1259 2753 
L 3553 2753 
L 3553 4666 
L 4184 4666 
L 4184 0 
L 3553 0 
L 3553 2222 
L 1259 2222 
L 1259 0 
L 628 0 
L 628 4666 
z
" transform="scale(0.015625)"/>
        <path id="DejaVuSans-52" d="M 2841 2188 
Q 3044 2119 3236 1894 
Q 3428 1669 3622 1275 
L 4263 0 
L 3584 0 
L 2988 1197 
Q 2756 1666 2539 1819 
Q 2322 1972 1947 1972 
L 1259 1972 
L 1259 0 
L 628 0 
L 628 4666 
L 2053 4666 
Q 2853 4666 3247 4331 
Q 3641 3997 3641 3322 
Q 3641 2881 3436 2590 
Q 3231 2300 2841 2188 
z
M 1259 4147 
L 1259 2491 
L 2053 2491 
Q 2509 2491 2742 2702 
Q 2975 2913 2975 3322 
Q 2975 3731 2742 3939 
Q 2509 4147 2053 4147 
L 1259 4147 
z
" transform="scale(0.015625)"/>
        <path id="DejaVuSans-4c" d="M 628 4666 
L 1259 4666 
L 1259 531 
L 3531 531 
L 3531 0 
L 628 0 
L 628 4666 
z
" transform="scale(0.015625)"/>
        <path id="DejaVuSans-29" d="M 513 4856 
L 1013 4856 
Q 1481 4119 1714 3412 
Q 1947 2706 1947 2009 
Q 1947 1309 1714 600 
Q 1481 -109 1013 -844 
L 513 -844 
Q 928 -128 1133 580 
Q 1338 1288 1338 2009 
Q 1338 2731 1133 3434 
Q 928 4138 513 4856 
z
" transform="scale(0.015625)"/>
       </defs>
       <use xlink:href="#DejaVuSans-47"/>
       <use xlink:href="#DejaVuSans-6f" x="77.490234"/>
       <use xlink:href="#DejaVuSans-6f" x="138.671875"/>
       <use xlink:href="#DejaVuSans-64" x="199.853516"/>
       <use xlink:href="#DejaVuSans-20" x="263.330078"/>
       <use xlink:href="#DejaVuSans-47" x="295.117188"/>
       <use xlink:href="#DejaVuSans-75" x="372.607422"/>
       <use xlink:href="#DejaVuSans-79" x="435.986328"/>
       <use xlink:href="#DejaVuSans-20" x="495.166016"/>
       <use xlink:href="#DejaVuSans-28" x="526.953125"/>
       <use xlink:href="#DejaVuSans-48" x="565.966797"/>
       <use xlink:href="#DejaVuSans-52" x="641.162109"/>
       <use xlink:href="#DejaVuSans-4c" x="710.644531"/>
       <use xlink:href="#DejaVuSans-29" x="766.357422"/>
      </g>
     </g>
    </g>
    <g id="xtick_2">
     <g id="line2d_2">
      <g>
       <use xlink:href="#m09c1f0b7ad" x="358.385" y="516.04" style="stroke: #000000; stroke-width: 0.8"/>
      </g>
     </g>
     <g id="text_2">
      <!-- Pursuers -->
      <g transform="translate(323.72625 535.1975) scale(0.16 -0.16)">
       <defs>
        <path id="DejaVuSans-50" d="M 1259 4147 
L 1259 2394 
L 2053 2394 
Q 2494 2394 2734 2622 
Q 2975 2850 2975 3272 
Q 2975 3691 2734 3919 
Q 2494 4147 2053 4147 
L 1259 4147 
z
M 628 4666 
L 2053 4666 
Q 2838 4666 3239 4311 
Q 3641 3956 3641 3272 
Q 3641 2581 3239 2228 
Q 2838 1875 2053 1875 
L 1259 1875 
L 1259 0 
L 628 0 
L 628 4666 
z
" transform="scale(0.015625)"/>
        <path id="DejaVuSans-72" d="M 2631 2963 
Q 2534 3019 2420 3045 
Q 2306 3072 2169 3072 
Q 1681 3072 1420 2755 
Q 1159 2438 1159 1844 
L 1159 0 
L 581 0 
L 581 3500 
L 1159 3500 
L 1159 2956 
Q 1341 3275 1631 3429 
Q 1922 3584 2338 3584 
Q 2397 3584 2469 3576 
Q 2541 3569 2628 3553 
L 2631 2963 
z
" transform="scale(0.015625)"/>
        <path id="DejaVuSans-73" d="M 2834 3397 
L 2834 2853 
Q 2591 2978 2328 3040 
Q 2066 3103 1784 3103 
Q 1356 3103 1142 2972 
Q 928 2841 928 2578 
Q 928 2378 1081 2264 
Q 1234 2150 1697 2047 
L 1894 2003 
Q 2506 1872 2764 1633 
Q 3022 1394 3022 966 
Q 3022 478 2636 193 
Q 2250 -91 1575 -91 
Q 1294 -91 989 -36 
Q 684 19 347 128 
L 347 722 
Q 666 556 975 473 
Q 1284 391 1588 391 
Q 1994 391 2212 530 
Q 2431 669 2431 922 
Q 2431 1156 2273 1281 
Q 2116 1406 1581 1522 
L 1381 1569 
Q 847 1681 609 1914 
Q 372 2147 372 2553 
Q 372 3047 722 3315 
Q 1072 3584 1716 3584 
Q 2034 3584 2315 3537 
Q 2597 3491 2834 3397 
z
" transform="scale(0.015625)"/>
        <path id="DejaVuSans-65" d="M 3597 1894 
L 3597 1613 
L 953 1613 
Q 991 1019 1311 708 
Q 1631 397 2203 397 
Q 2534 397 2845 478 
Q 3156 559 3463 722 
L 3463 178 
Q 3153 47 2828 -22 
Q 2503 -91 2169 -91 
Q 1331 -91 842 396 
Q 353 884 353 1716 
Q 353 2575 817 3079 
Q 1281 3584 2069 3584 
Q 2775 3584 3186 3129 
Q 3597 2675 3597 1894 
z
M 3022 2063 
Q 3016 2534 2758 2815 
Q 2500 3097 2075 3097 
Q 1594 3097 1305 2825 
Q 1016 2553 972 2059 
L 3022 2063 
z
" transform="scale(0.015625)"/>
       </defs>
       <use xlink:href="#DejaVuSans-50"/>
       <use xlink:href="#DejaVuSans-75" x="58.552734"/>
       <use xlink:href="#DejaVuSans-72" x="121.931641"/>
       <use xlink:href="#DejaVuSans-73" x="163.044922"/>
       <use xlink:href="#DejaVuSans-75" x="215.144531"/>
       <use xlink:href="#DejaVuSans-65" x="278.523438"/>
       <use xlink:href="#DejaVuSans-72" x="340.046875"/>
       <use xlink:href="#DejaVuSans-73" x="381.160156"/>
      </g>
     </g>
    </g>
    <g id="text_3">
     <!-- Group -->
     <g transform="translate(238.654844 556.202187) scale(0.18 -0.18)">
      <defs>
       <path id="DejaVuSans-70" d="M 1159 525 
L 1159 -1331 
L 581 -1331 
L 581 3500 
L 1159 3500 
L 1159 2969 
Q 1341 3281 1617 3432 
Q 1894 3584 2278 3584 
Q 2916 3584 3314 3078 
Q 3713 2572 3713 1747 
Q 3713 922 3314 415 
Q 2916 -91 2278 -91 
Q 1894 -91 1617 61 
Q 1341 213 1159 525 
z
M 3116 1747 
Q 3116 2381 2855 2742 
Q 2594 3103 2138 3103 
Q 1681 3103 1420 2742 
Q 1159 2381 1159 1747 
Q 1159 1113 1420 752 
Q 1681 391 2138 391 
Q 2594 391 2855 752 
Q 3116 1113 3116 1747 
z
" transform="scale(0.015625)"/>
      </defs>
      <use xlink:href="#DejaVuSans-47"/>
      <use xlink:href="#DejaVuSans-72" x="77.490234"/>
      <use xlink:href="#DejaVuSans-6f" x="116.353516"/>
      <use xlink:href="#DejaVuSans-75" x="177.535156"/>
      <use xlink:href="#DejaVuSans-70" x="240.914062"/>
     </g>
    </g>
   </g>
   <g id="matplotlib.axis_2">
    <g id="ytick_1">
     <g id="line2d_3">
      <defs>
       <path id="me1dd4b1e6a" d="M 0 0 
L -3.5 0 
" style="stroke: #000000; stroke-width: 0.8"/>
      </defs>
      <g>
       <use xlink:href="#me1dd4b1e6a" x="81.38" y="511.61968" style="stroke: #000000; stroke-width: 0.8"/>
      </g>
     </g>
     <g id="text_4">
      <!-- 0.30 -->
      <g transform="translate(38.755 517.69843) scale(0.16 -0.16)">
       <defs>
        <path id="DejaVuSans-30" d="M 2034 4250 
Q 1547 4250 1301 3770 
Q 1056 3291 1056 2328 
Q 1056 1369 1301 889 
Q 1547 409 2034 409 
Q 2525 409 2770 889 
Q 3016 1369 3016 2328 
Q 3016 3291 2770 3770 
Q 2525 4250 2034 4250 
z
M 2034 4750 
Q 2819 4750 3233 4129 
Q 3647 3509 3647 2328 
Q 3647 1150 3233 529 
Q 2819 -91 2034 -91 
Q 1250 -91 836 529 
Q 422 1150 422 2328 
Q 422 3509 836 4129 
Q 1250 4750 2034 4750 
z
" transform="scale(0.015625)"/>
        <path id="DejaVuSans-2e" d="M 684 794 
L 1344 794 
L 1344 0 
L 684 0 
L 684 794 
z
" transform="scale(0.015625)"/>
        <path id="DejaVuSans-33" d="M 2597 2516 
Q 3050 2419 3304 2112 
Q 3559 1806 3559 1356 
Q 3559 666 3084 287 
Q 2609 -91 1734 -91 
Q 1441 -91 1130 -33 
Q 819 25 488 141 
L 488 750 
Q 750 597 1062 519 
Q 1375 441 1716 441 
Q 2309 441 2620 675 
Q 2931 909 2931 1356 
Q 2931 1769 2642 2001 
Q 2353 2234 1838 2234 
L 1294 2234 
L 1294 2753 
L 1863 2753 
Q 2328 2753 2575 2939 
Q 2822 3125 2822 3475 
Q 2822 3834 2567 4026 
Q 2313 4219 1838 4219 
Q 1578 4219 1281 4162 
Q 984 4106 628 3988 
L 628 4550 
Q 988 4650 1302 4700 
Q 1616 4750 1894 4750 
Q 2613 4750 3031 4423 
Q 3450 4097 3450 3541 
Q 3450 3153 3228 2886 
Q 3006 2619 2597 2516 
z
" transform="scale(0.015625)"/>
       </defs>
       <use xlink:href="#DejaVuSans-30"/>
       <use xlink:href="#DejaVuSans-2e" x="63.623047"/>
       <use xlink:href="#DejaVuSans-33" x="95.410156"/>
       <use xlink:href="#DejaVuSans-30" x="159.033203"/>
      </g>
     </g>
    </g>
    <g id="ytick_2">
     <g id="line2d_4">
      <g>
       <use xlink:href="#me1dd4b1e6a" x="81.38" y="453.19976" style="stroke: #000000; stroke-width: 0.8"/>
      </g>
     </g>
     <g id="text_5">
      <!-- 0.35 -->
      <g transform="translate(38.755 459.27851) scale(0.16 -0.16)">
       <defs>
        <path id="DejaVuSans-35" d="M 691 4666 
L 3169 4666 
L 3169 4134 
L 1269 4134 
L 1269 2991 
Q 1406 3038 1543 3061 
Q 1681 3084 1819 3084 
Q 2600 3084 3056 2656 
Q 3513 2228 3513 1497 
Q 3513 744 3044 326 
Q 2575 -91 1722 -91 
Q 1428 -91 1123 -41 
Q 819 9 494 109 
L 494 744 
Q 775 591 1075 516 
Q 1375 441 1709 441 
Q 2250 441 2565 725 
Q 2881 1009 2881 1497 
Q 2881 1984 2565 2268 
Q 2250 2553 1709 2553 
Q 1456 2553 1204 2497 
Q 953 2441 691 2322 
L 691 4666 
z
" transform="scale(0.015625)"/>
       </defs>
       <use xlink:href="#DejaVuSans-30"/>
       <use xlink:href="#DejaVuSans-2e" x="63.623047"/>
       <use xlink:href="#DejaVuSans-33" x="95.410156"/>
       <use xlink:href="#DejaVuSans-35" x="159.033203"/>
      </g>
     </g>
    </g>
    <g id="ytick_3">
     <g id="line2d_5">
      <g>
       <use xlink:href="#me1dd4b1e6a" x="81.38" y="394.77984" style="stroke: #000000; stroke-width: 0.8"/>
      </g>
     </g>
     <g id="text_6">
      <!-- 0.40 -->
      <g transform="translate(38.755 400.85859) scale(0.16 -0.16)">
       <defs>
        <path id="DejaVuSans-34" d="M 2419 4116 
L 825 1625 
L 2419 1625 
L 2419 4116 
z
M 2253 4666 
L 3047 4666 
L 3047 1625 
L 3713 1625 
L 3713 1100 
L 3047 1100 
L 3047 0 
L 2419 0 
L 2419 1100 
L 313 1100 
L 313 1709 
L 2253 4666 
z
" transform="scale(0.015625)"/>
       </defs>
       <use xlink:href="#DejaVuSans-30"/>
       <use xlink:href="#DejaVuSans-2e" x="63.623047"/>
       <use xlink:href="#DejaVuSans-34" x="95.410156"/>
       <use xlink:href="#DejaVuSans-30" x="159.033203"/>
      </g>
     </g>
    </g>
    <g id="ytick_4">
     <g id="line2d_6">
      <g>
       <use xlink:href="#me1dd4b1e6a" x="81.38" y="336.35992" style="stroke: #000000; stroke-width: 0.8"/>
      </g>
     </g>
     <g id="text_7">
      <!-- 0.45 -->
      <g transform="translate(38.755 342.43867) scale(0.16 -0.16)">
       <use xlink:href="#DejaVuSans-30"/>
       <use xlink:href="#DejaVuSans-2e" x="63.623047"/>
       <use xlink:href="#DejaVuSans-34" x="95.410156"/>
       <use xlink:href="#DejaVuSans-35" x="159.033203"/>
      </g>
     </g>
    </g>
    <g id="ytick_5">
     <g id="line2d_7">
      <g>
       <use xlink:href="#me1dd4b1e6a" x="81.38" y="277.94" style="stroke: #000000; stroke-width: 0.8"/>
      </g>
     </g>
     <g id="text_8">
      <!-- 0.50 -->
      <g transform="translate(38.755 284.01875) scale(0.16 -0.16)">
       <use xlink:href="#DejaVuSans-30"/>
       <use xlink:href="#DejaVuSans-2e" x="63.623047"/>
       <use xlink:href="#DejaVuSans-35" x="95.410156"/>
       <use xlink:href="#DejaVuSans-30" x="159.033203"/>
      </g>
     </g>
    </g>
    <g id="ytick_6">
     <g id="line2d_8">
      <g>
       <use xlink:href="#me1dd4b1e6a" x="81.38" y="219.52008" style="stroke: #000000; stroke-width: 0.8"/>
      </g>
     </g>
     <g id="text_9">
      <!-- 0.55 -->
      <g transform="translate(38.755 225.59883) scale(0.16 -0.16)">
       <use xlink:href="#DejaVuSans-30"/>
       <use xlink:href="#DejaVuSans-2e" x="63.623047"/>
       <use xlink:href="#DejaVuSans-35" x="95.410156"/>
       <use xlink:href="#DejaVuSans-35" x="159.033203"/>
      </g>
     </g>
    </g>
    <g id="ytick_7">
     <g id="line2d_9">
      <g>
       <use xlink:href="#me1dd4b1e6a" x="81.38" y="161.10016" style="stroke: #000000; stroke-width: 0.8"/>
      </g>
     </g>
     <g id="text_10">
      <!-- 0.60 -->
      <g transform="translate(38.755 167.17891) scale(0.16 -0.16)">
       <defs>
        <path id="DejaVuSans-36" d="M 2113 2584 
Q 1688 2584 1439 2293 
Q 1191 2003 1191 1497 
Q 1191 994 1439 701 
Q 1688 409 2113 409 
Q 2538 409 2786 701 
Q 3034 994 3034 1497 
Q 3034 2003 2786 2293 
Q 2538 2584 2113 2584 
z
M 3366 4563 
L 3366 3988 
Q 3128 4100 2886 4159 
Q 2644 4219 2406 4219 
Q 1781 4219 1451 3797 
Q 1122 3375 1075 2522 
Q 1259 2794 1537 2939 
Q 1816 3084 2150 3084 
Q 2853 3084 3261 2657 
Q 3669 2231 3669 1497 
Q 3669 778 3244 343 
Q 2819 -91 2113 -91 
Q 1303 -91 875 529 
Q 447 1150 447 2328 
Q 447 3434 972 4092 
Q 1497 4750 2381 4750 
Q 2619 4750 2861 4703 
Q 3103 4656 3366 4563 
z
" transform="scale(0.015625)"/>
       </defs>
       <use xlink:href="#DejaVuSans-30"/>
       <use xlink:href="#DejaVuSans-2e" x="63.623047"/>
       <use xlink:href="#DejaVuSans-36" x="95.410156"/>
       <use xlink:href="#DejaVuSans-30" x="159.033203"/>
      </g>
     </g>
    </g>
    <g id="ytick_8">
     <g id="line2d_10">
      <g>
       <use xlink:href="#me1dd4b1e6a" x="81.38" y="102.68024" style="stroke: #000000; stroke-width: 0.8"/>
      </g>
     </g>
     <g id="text_11">
      <!-- 0.65 -->
      <g transform="translate(38.755 108.75899) scale(0.16 -0.16)">
       <use xlink:href="#DejaVuSans-30"/>
       <use xlink:href="#DejaVuSans-2e" x="63.623047"/>
       <use xlink:href="#DejaVuSans-36" x="95.410156"/>
       <use xlink:href="#DejaVuSans-35" x="159.033203"/>
      </g>
     </g>
    </g>
    <g id="ytick_9">
     <g id="line2d_11">
      <g>
       <use xlink:href="#me1dd4b1e6a" x="81.38" y="44.26032" style="stroke: #000000; stroke-width: 0.8"/>
      </g>
     </g>
     <g id="text_12">
      <!-- 0.70 -->
      <g transform="translate(38.755 50.33907) scale(0.16 -0.16)">
       <defs>
        <path id="DejaVuSans-37" d="M 525 4666 
L 3525 4666 
L 3525 4397 
L 1831 0 
L 1172 0 
L 2766 4134 
L 525 4134 
L 525 4666 
z
" transform="scale(0.015625)"/>
       </defs>
       <use xlink:href="#DejaVuSans-30"/>
       <use xlink:href="#DejaVuSans-2e" x="63.623047"/>
       <use xlink:href="#DejaVuSans-37" x="95.410156"/>
       <use xlink:href="#DejaVuSans-30" x="159.033203"/>
      </g>
     </g>
    </g>
    <g id="text_13">
     <!-- Win Rate -->
     <g transform="translate(31.011563 318.333125) rotate(-90) scale(0.18 -0.18)">
      <defs>
       <path id="DejaVuSans-57" d="M 213 4666 
L 850 4666 
L 1831 722 
L 2809 4666 
L 3519 4666 
L 4500 722 
L 5478 4666 
L 6119 4666 
L 4947 0 
L 4153 0 
L 3169 4050 
L 2175 0 
L 1381 0 
L 213 4666 
z
" transform="scale(0.015625)"/>
       <path id="DejaVuSans-69" d="M 603 3500 
L 1178 3500 
L 1178 0 
L 603 0 
L 603 3500 
z
M 603 4863 
L 1178 4863 
L 1178 4134 
L 603 4134 
L 603 4863 
z
" transform="scale(0.015625)"/>
       <path id="DejaVuSans-6e" d="M 3513 2113 
L 3513 0 
L 2938 0 
L 2938 2094 
Q 2938 2591 2744 2837 
Q 2550 3084 2163 3084 
Q 1697 3084 1428 2787 
Q 1159 2491 1159 1978 
L 1159 0 
L 581 0 
L 581 3500 
L 1159 3500 
L 1159 2956 
Q 1366 3272 1645 3428 
Q 1925 3584 2291 3584 
Q 2894 3584 3203 3211 
Q 3513 2838 3513 2113 
z
" transform="scale(0.015625)"/>
       <path id="DejaVuSans-61" d="M 2194 1759 
Q 1497 1759 1228 1600 
Q 959 1441 959 1056 
Q 959 750 1161 570 
Q 1363 391 1709 391 
Q 2188 391 2477 730 
Q 2766 1069 2766 1631 
L 2766 1759 
L 2194 1759 
z
M 3341 1997 
L 3341 0 
L 2766 0 
L 2766 531 
Q 2569 213 2275 61 
Q 1981 -91 1556 -91 
Q 1019 -91 701 211 
Q 384 513 384 1019 
Q 384 1609 779 1909 
Q 1175 2209 1959 2209 
L 2766 2209 
L 2766 2266 
Q 2766 2663 2505 2880 
Q 2244 3097 1772 3097 
Q 1472 3097 1187 3025 
Q 903 2953 641 2809 
L 641 3341 
Q 956 3463 1253 3523 
Q 1550 3584 1831 3584 
Q 2591 3584 2966 3190 
Q 3341 2797 3341 1997 
z
" transform="scale(0.015625)"/>
       <path id="DejaVuSans-74" d="M 1172 4494 
L 1172 3500 
L 2356 3500 
L 2356 3053 
L 1172 3053 
L 1172 1153 
Q 1172 725 1289 603 
Q 1406 481 1766 481 
L 2356 481 
L 2356 0 
L 1766 0 
Q 1100 0 847 248 
Q 594 497 594 1153 
L 594 3053 
L 172 3053 
L 172 3500 
L 594 3500 
L 594 4494 
L 1172 4494 
z
" transform="scale(0.015625)"/>
      </defs>
      <use xlink:href="#DejaVuSans-57"/>
      <use xlink:href="#DejaVuSans-69" x="96.626953"/>
      <use xlink:href="#DejaVuSans-6e" x="124.410156"/>
      <use xlink:href="#DejaVuSans-20" x="187.789062"/>
      <use xlink:href="#DejaVuSans-52" x="219.576172"/>
      <use xlink:href="#DejaVuSans-61" x="286.808594"/>
      <use xlink:href="#DejaVuSans-74" x="348.087891"/>
      <use xlink:href="#DejaVuSans-65" x="387.296875"/>
     </g>
    </g>
   </g>
   <g id="line2d_12">
    <path d="M 173.715 301.307968 
L 173.715 137.732192 
" clip-path="url(#pb5351a0f07)" style="fill: none; stroke: #4c4c4c; stroke-width: 1.875; stroke-linecap: square"/>
   </g>
   <g id="line2d_13">
    <path d="M 173.715 277.94 
L 173.715 166.942152 
" clip-path="url(#pb5351a0f07)" style="fill: none; stroke: #4c4c4c; stroke-width: 5.625; stroke-linecap: square"/>
   </g>
   <g id="line2d_14">
    <path d="M 173.715 230.634113 
" clip-path="url(#pb5351a0f07)" style="fill: none; stroke: #4c4c4c; stroke-width: 1.5; stroke-linecap: square"/>
    <defs>
     <path id="mcdc5d79a59" d="M 2.34375 0 
L -2.34375 -0 
" style="stroke: #ffffff; stroke-width: 1.125"/>
    </defs>
    <g clip-path="url(#pb5351a0f07)">
     <use xlink:href="#mcdc5d79a59" x="173.715" y="230.634113" style="fill: #ffffff; stroke: #ffffff; stroke-width: 1.125"/>
    </g>
   </g>
   <g id="line2d_15">
    <path d="M 358.385 418.147808 
L 358.385 254.572032 
" clip-path="url(#pb5351a0f07)" style="fill: none; stroke: #4c4c4c; stroke-width: 1.875; stroke-linecap: square"/>
   </g>
   <g id="line2d_16">
    <path d="M 358.385 388.937848 
L 358.385 277.94 
" clip-path="url(#pb5351a0f07)" style="fill: none; stroke: #4c4c4c; stroke-width: 5.625; stroke-linecap: square"/>
   </g>
   <g id="line2d_17">
    <path d="M 358.385 325.245887 
" clip-path="url(#pb5351a0f07)" style="fill: none; stroke: #4c4c4c; stroke-width: 1.5; stroke-linecap: square"/>
    <g clip-path="url(#pb5351a0f07)">
     <use xlink:href="#mcdc5d79a59" x="358.385" y="325.245887" style="fill: #ffffff; stroke: #ffffff; stroke-width: 1.125"/>
    </g>
   </g>
   <g id="patch_3">
    <path d="M 81.38 516.04 
L 81.38 39.84 
" style="fill: none; stroke: #000000; stroke-width: 0.8; stroke-linejoin: miter; stroke-linecap: square"/>
   </g>
   <g id="patch_4">
    <path d="M 450.72 516.04 
L 450.72 39.84 
" style="fill: none; stroke: #000000; stroke-width: 0.8; stroke-linejoin: miter; stroke-linecap: square"/>
   </g>
   <g id="patch_5">
    <path d="M 81.38 516.04 
L 450.72 516.04 
" style="fill: none; stroke: #000000; stroke-width: 0.8; stroke-linejoin: miter; stroke-linecap: square"/>
   </g>
   <g id="patch_6">
    <path d="M 81.38 39.84 
L 450.72 39.84 
" style="fill: none; stroke: #000000; stroke-width: 0.8; stroke-linejoin: miter; stroke-linecap: square"/>
   </g>
   <g id="text_14">
    <!-- HRL Win Rates with Different Seeds -->
    <g transform="translate(69.987031 33.84) scale(0.22 -0.22)">
     <defs>
      <path id="DejaVuSans-77" d="M 269 3500 
L 844 3500 
L 1563 769 
L 2278 3500 
L 2956 3500 
L 3675 769 
L 4391 3500 
L 4966 3500 
L 4050 0 
L 3372 0 
L 2619 2869 
L 1863 0 
L 1184 0 
L 269 3500 
z
" transform="scale(0.015625)"/>
      <path id="DejaVuSans-68" d="M 3513 2113 
L 3513 0 
L 2938 0 
L 2938 2094 
Q 2938 2591 2744 2837 
Q 2550 3084 2163 3084 
Q 1697 3084 1428 2787 
Q 1159 2491 1159 1978 
L 1159 0 
L 581 0 
L 581 4863 
L 1159 4863 
L 1159 2956 
Q 1366 3272 1645 3428 
Q 1925 3584 2291 3584 
Q 2894 3584 3203 3211 
Q 3513 2838 3513 2113 
z
" transform="scale(0.015625)"/>
      <path id="DejaVuSans-44" d="M 1259 4147 
L 1259 519 
L 2022 519 
Q 2988 519 3436 956 
Q 3884 1394 3884 2338 
Q 3884 3275 3436 3711 
Q 2988 4147 2022 4147 
L 1259 4147 
z
M 628 4666 
L 1925 4666 
Q 3281 4666 3915 4102 
Q 4550 3538 4550 2338 
Q 4550 1131 3912 565 
Q 3275 0 1925 0 
L 628 0 
L 628 4666 
z
" transform="scale(0.015625)"/>
      <path id="DejaVuSans-66" d="M 2375 4863 
L 2375 4384 
L 1825 4384 
Q 1516 4384 1395 4259 
Q 1275 4134 1275 3809 
L 1275 3500 
L 2222 3500 
L 2222 3053 
L 1275 3053 
L 1275 0 
L 697 0 
L 697 3053 
L 147 3053 
L 147 3500 
L 697 3500 
L 697 3744 
Q 697 4328 969 4595 
Q 1241 4863 1831 4863 
L 2375 4863 
z
" transform="scale(0.015625)"/>
      <path id="DejaVuSans-53" d="M 3425 4513 
L 3425 3897 
Q 3066 4069 2747 4153 
Q 2428 4238 2131 4238 
Q 1616 4238 1336 4038 
Q 1056 3838 1056 3469 
Q 1056 3159 1242 3001 
Q 1428 2844 1947 2747 
L 2328 2669 
Q 3034 2534 3370 2195 
Q 3706 1856 3706 1288 
Q 3706 609 3251 259 
Q 2797 -91 1919 -91 
Q 1588 -91 1214 -16 
Q 841 59 441 206 
L 441 856 
Q 825 641 1194 531 
Q 1563 422 1919 422 
Q 2459 422 2753 634 
Q 3047 847 3047 1241 
Q 3047 1584 2836 1778 
Q 2625 1972 2144 2069 
L 1759 2144 
Q 1053 2284 737 2584 
Q 422 2884 422 3419 
Q 422 4038 858 4394 
Q 1294 4750 2059 4750 
Q 2388 4750 2728 4690 
Q 3069 4631 3425 4513 
z
" transform="scale(0.015625)"/>
     </defs>
     <use xlink:href="#DejaVuSans-48"/>
     <use xlink:href="#DejaVuSans-52" x="75.195312"/>
     <use xlink:href="#DejaVuSans-4c" x="144.677734"/>
     <use xlink:href="#DejaVuSans-20" x="200.390625"/>
     <use xlink:href="#DejaVuSans-57" x="232.177734"/>
     <use xlink:href="#DejaVuSans-69" x="328.804688"/>
     <use xlink:href="#DejaVuSans-6e" x="356.587891"/>
     <use xlink:href="#DejaVuSans-20" x="419.966797"/>
     <use xlink:href="#DejaVuSans-52" x="451.753906"/>
     <use xlink:href="#DejaVuSans-61" x="518.986328"/>
     <use xlink:href="#DejaVuSans-74" x="580.265625"/>
     <use xlink:href="#DejaVuSans-65" x="619.474609"/>
     <use xlink:href="#DejaVuSans-73" x="680.998047"/>
     <use xlink:href="#DejaVuSans-20" x="733.097656"/>
     <use xlink:href="#DejaVuSans-77" x="764.884766"/>
     <use xlink:href="#DejaVuSans-69" x="846.671875"/>
     <use xlink:href="#DejaVuSans-74" x="874.455078"/>
     <use xlink:href="#DejaVuSans-68" x="913.664062"/>
     <use xlink:href="#DejaVuSans-20" x="977.042969"/>
     <use xlink:href="#DejaVuSans-44" x="1008.830078"/>
     <use xlink:href="#DejaVuSans-69" x="1085.832031"/>
     <use xlink:href="#DejaVuSans-66" x="1113.615234"/>
     <use xlink:href="#DejaVuSans-66" x="1148.820312"/>
     <use xlink:href="#DejaVuSans-65" x="1184.025391"/>
     <use xlink:href="#DejaVuSans-72" x="1245.548828"/>
     <use xlink:href="#DejaVuSans-65" x="1284.412109"/>
     <use xlink:href="#DejaVuSans-6e" x="1345.935547"/>
     <use xlink:href="#DejaVuSans-74" x="1409.314453"/>
     <use xlink:href="#DejaVuSans-20" x="1448.523438"/>
     <use xlink:href="#DejaVuSans-53" x="1480.310547"/>
     <use xlink:href="#DejaVuSans-65" x="1543.787109"/>
     <use xlink:href="#DejaVuSans-65" x="1605.310547"/>
     <use xlink:href="#DejaVuSans-64" x="1666.833984"/>
     <use xlink:href="#DejaVuSans-73" x="1730.310547"/>
    </g>
   </g>
  </g>
 </g>
 <defs>
  <clipPath id="pb5351a0f07">
   <rect x="81.38" y="39.84" width="369.34" height="476.2"/>
  </clipPath>
 </defs>
</svg>
