<?xml version="1.0" encoding="utf-8" standalone="no"?>
<!DOCTYPE svg PUBLIC "-//W3C//DTD SVG 1.1//EN"
  "http://www.w3.org/Graphics/SVG/1.1/DTD/svg11.dtd">
<svg xmlns:xlink="http://www.w3.org/1999/xlink" width="432pt" height="576pt" viewBox="0 0 432 576" xmlns="http://www.w3.org/2000/svg" version="1.1">
 <metadata>
  <rdf:RDF xmlns:dc="http://purl.org/dc/elements/1.1/" xmlns:cc="http://creativecommons.org/ns#" xmlns:rdf="http://www.w3.org/1999/02/22-rdf-syntax-ns#">
   <cc:Work>
    <dc:type rdf:resource="http://purl.org/dc/dcmitype/StillImage"/>
    <dc:date>2025-03-06T00:50:56.890563</dc:date>
    <dc:format>image/svg+xml</dc:format>
    <dc:creator>
     <cc:Agent>
      <dc:title>Matplotlib v3.9.2, https://matplotlib.org/</dc:title>
     </cc:Agent>
    </dc:creator>
   </cc:Work>
  </rdf:RDF>
 </metadata>
 <defs>
  <style type="text/css">*{stroke-linejoin: round; stroke-linecap: butt}</style>
 </defs>
 <g id="figure_1">
  <g id="patch_1">
   <path d="M 0 576 
L 432 576 
L 432 0 
L 0 0 
z
" style="fill: #ffffff"/>
  </g>
  <g id="axes_1">
   <g id="patch_2">
    <path d="M 81.38 516.04 
L 414.72 516.04 
L 414.72 39.84 
L 81.38 39.84 
z
" style="fill: #ffffff"/>
   </g>
   <g id="PolyCollection_1">
    <defs>
     <path id="m6d2b7f8ed5" d="M 166.693512 -81.605455 
L 162.736488 -81.605455 
L 162.348541 -85.060516 
L 161.902717 -88.515577 
L 161.3941 -91.970638 
L 160.818018 -95.4257 
L 160.170154 -98.880761 
L 159.446671 -102.335822 
L 158.644328 -105.790883 
L 157.760575 -109.245945 
L 156.793654 -112.701006 
L 155.742662 -116.156067 
L 154.607607 -119.611128 
L 153.389428 -123.06619 
L 152.089999 -126.521251 
L 150.712101 -129.976312 
L 149.259372 -133.431373 
L 147.736233 -136.886435 
L 146.147799 -140.341496 
L 144.499769 -143.796557 
L 142.798307 -147.251619 
L 141.049921 -150.70668 
L 139.261338 -154.161741 
L 137.439383 -157.616802 
L 135.590866 -161.071864 
L 133.722487 -164.526925 
L 131.840748 -167.981986 
L 129.951899 -171.437047 
L 128.061893 -174.892109 
L 126.176379 -178.34717 
L 124.300714 -181.802231 
L 122.440009 -185.257292 
L 120.5992 -188.712354 
L 118.783149 -192.167415 
L 116.996762 -195.622476 
L 115.245128 -199.077537 
L 113.533667 -202.532599 
L 111.868272 -205.98766 
L 110.255446 -209.442721 
L 108.702398 -212.897783 
L 107.21711 -216.352844 
L 105.808337 -219.807905 
L 104.485546 -223.262966 
L 103.258773 -226.718028 
L 102.138395 -230.173089 
L 101.134824 -233.62815 
L 100.258123 -237.083211 
L 99.517559 -240.538273 
L 98.921123 -243.993334 
L 98.475025 -247.448395 
L 98.183225 -250.903456 
L 98.047 -254.358518 
L 98.064616 -257.813579 
L 98.231114 -261.26864 
L 98.538247 -264.723701 
L 98.974597 -268.178763 
L 99.52586 -271.633824 
L 100.175328 -275.088885 
L 100.904523 -278.543946 
L 101.69398 -281.999008 
L 102.524135 -285.454069 
L 103.376264 -288.90913 
L 104.233426 -292.364192 
L 105.081352 -295.819253 
L 105.909224 -299.274314 
L 106.71029 -302.729375 
L 107.48227 -306.184437 
L 108.227531 -309.639498 
L 108.952999 -313.094559 
L 109.669818 -316.54962 
L 110.392767 -320.004682 
L 111.139462 -323.459743 
L 111.929388 -326.914804 
L 112.782822 -330.369865 
L 113.719695 -333.824927 
L 114.758471 -337.279988 
L 115.915094 -340.735049 
L 117.202079 -344.19011 
L 118.627773 -347.645172 
L 120.195837 -351.100233 
L 121.904978 -354.555294 
L 123.748917 -358.010356 
L 125.716613 -361.465417 
L 127.792697 -364.920478 
L 129.958106 -368.375539 
L 132.190854 -371.830601 
L 134.466909 -375.285662 
L 136.761122 -378.740723 
L 139.048145 -382.195784 
L 141.303311 -385.650846 
L 143.503428 -389.105907 
L 145.627451 -392.560968 
L 147.657018 -396.016029 
L 149.576828 -399.471091 
L 151.374872 -402.926152 
L 153.042505 -406.381213 
L 154.574389 -409.836274 
L 155.968307 -413.291336 
L 157.224894 -416.746397 
L 158.347289 -420.201458 
L 159.340734 -423.65652 
L 170.089266 -423.65652 
L 170.089266 -423.65652 
L 171.082711 -420.201458 
L 172.205106 -416.746397 
L 173.461693 -413.291336 
L 174.855611 -409.836274 
L 176.387495 -406.381213 
L 178.055128 -402.926152 
L 179.853172 -399.471091 
L 181.772982 -396.016029 
L 183.802549 -392.560968 
L 185.926572 -389.105907 
L 188.126689 -385.650846 
L 190.381855 -382.195784 
L 192.668878 -378.740723 
L 194.963091 -375.285662 
L 197.239146 -371.830601 
L 199.471894 -368.375539 
L 201.637303 -364.920478 
L 203.713387 -361.465417 
L 205.681083 -358.010356 
L 207.525022 -354.555294 
L 209.234163 -351.100233 
L 210.802227 -347.645172 
L 212.227921 -344.19011 
L 213.514906 -340.735049 
L 214.671529 -337.279988 
L 215.710305 -333.824927 
L 216.647178 -330.369865 
L 217.500612 -326.914804 
L 218.290538 -323.459743 
L 219.037233 -320.004682 
L 219.760182 -316.54962 
L 220.477001 -313.094559 
L 221.202469 -309.639498 
L 221.94773 -306.184437 
L 222.71971 -302.729375 
L 223.520776 -299.274314 
L 224.348648 -295.819253 
L 225.196574 -292.364192 
L 226.053736 -288.90913 
L 226.905865 -285.454069 
L 227.73602 -281.999008 
L 228.525477 -278.543946 
L 229.254672 -275.088885 
L 229.90414 -271.633824 
L 230.455403 -268.178763 
L 230.891753 -264.723701 
L 231.198886 -261.26864 
L 231.365384 -257.813579 
L 231.383 -254.358518 
L 231.246775 -250.903456 
L 230.954975 -247.448395 
L 230.508877 -243.993334 
L 229.912441 -240.538273 
L 229.171877 -237.083211 
L 228.295176 -233.62815 
L 227.291605 -230.173089 
L 226.171227 -226.718028 
L 224.944454 -223.262966 
L 223.621663 -219.807905 
L 222.21289 -216.352844 
L 220.727602 -212.897783 
L 219.174554 -209.442721 
L 217.561728 -205.98766 
L 215.896333 -202.532599 
L 214.184872 -199.077537 
L 212.433238 -195.622476 
L 210.646851 -192.167415 
L 208.8308 -188.712354 
L 206.989991 -185.257292 
L 205.129286 -181.802231 
L 203.253621 -178.34717 
L 201.368107 -174.892109 
L 199.478101 -171.437047 
L 197.589252 -167.981986 
L 195.707513 -164.526925 
L 193.839134 -161.071864 
L 191.990617 -157.616802 
L 190.168662 -154.161741 
L 188.380079 -150.70668 
L 186.631693 -147.251619 
L 184.930231 -143.796557 
L 183.282201 -140.341496 
L 181.693767 -136.886435 
L 180.170628 -133.431373 
L 178.717899 -129.976312 
L 177.340001 -126.521251 
L 176.040572 -123.06619 
L 174.822393 -119.611128 
L 173.687338 -116.156067 
L 172.636346 -112.701006 
L 171.669425 -109.245945 
L 170.785672 -105.790883 
L 169.983329 -102.335822 
L 169.259846 -98.880761 
L 168.611982 -95.4257 
L 168.0359 -91.970638 
L 167.527283 -88.515577 
L 167.081459 -85.060516 
L 166.693512 -81.605455 
z
" style="stroke: #4c4c4c; stroke-width: 2"/>
    </defs>
    <g clip-path="url(#p050d34fe8d)">
     <use xlink:href="#m6d2b7f8ed5" x="0" y="576" style="fill: #2020df; stroke: #4c4c4c; stroke-width: 2"/>
    </g>
   </g>
   <g id="PolyCollection_2">
    <defs>
     <path id="m43b758499e" d="M 336.759266 -172.46348 
L 326.010734 -172.46348 
L 325.017289 -175.918542 
L 323.894894 -179.373603 
L 322.638307 -182.828664 
L 321.244389 -186.283726 
L 319.712505 -189.738787 
L 318.044872 -193.193848 
L 316.246828 -196.648909 
L 314.327018 -200.103971 
L 312.297451 -203.559032 
L 310.173428 -207.014093 
L 307.973311 -210.469154 
L 305.718145 -213.924216 
L 303.431122 -217.379277 
L 301.136909 -220.834338 
L 298.860854 -224.289399 
L 296.628106 -227.744461 
L 294.462697 -231.199522 
L 292.386613 -234.654583 
L 290.418917 -238.109644 
L 288.574978 -241.564706 
L 286.865837 -245.019767 
L 285.297773 -248.474828 
L 283.872079 -251.92989 
L 282.585094 -255.384951 
L 281.428471 -258.840012 
L 280.389695 -262.295073 
L 279.452822 -265.750135 
L 278.599388 -269.205196 
L 277.809462 -272.660257 
L 277.062767 -276.115318 
L 276.339818 -279.57038 
L 275.622999 -283.025441 
L 274.897531 -286.480502 
L 274.15227 -289.935563 
L 273.38029 -293.390625 
L 272.579224 -296.845686 
L 271.751352 -300.300747 
L 270.903426 -303.755808 
L 270.046264 -307.21087 
L 269.194135 -310.665931 
L 268.36398 -314.120992 
L 267.574523 -317.576054 
L 266.845328 -321.031115 
L 266.19586 -324.486176 
L 265.644597 -327.941237 
L 265.208247 -331.396299 
L 264.901114 -334.85136 
L 264.734616 -338.306421 
L 264.717 -341.761482 
L 264.853225 -345.216544 
L 265.145025 -348.671605 
L 265.591123 -352.126666 
L 266.187559 -355.581727 
L 266.928123 -359.036789 
L 267.804824 -362.49185 
L 268.808395 -365.946911 
L 269.928773 -369.401972 
L 271.155546 -372.857034 
L 272.478337 -376.312095 
L 273.88711 -379.767156 
L 275.372398 -383.222217 
L 276.925446 -386.677279 
L 278.538272 -390.13234 
L 280.203667 -393.587401 
L 281.915128 -397.042463 
L 283.666762 -400.497524 
L 285.453149 -403.952585 
L 287.2692 -407.407646 
L 289.110009 -410.862708 
L 290.970714 -414.317769 
L 292.846379 -417.77283 
L 294.731893 -421.227891 
L 296.621899 -424.682953 
L 298.510748 -428.138014 
L 300.392487 -431.593075 
L 302.260866 -435.048136 
L 304.109383 -438.503198 
L 305.931338 -441.958259 
L 307.719921 -445.41332 
L 309.468307 -448.868381 
L 311.169769 -452.323443 
L 312.817799 -455.778504 
L 314.406233 -459.233565 
L 315.929372 -462.688627 
L 317.382101 -466.143688 
L 318.759999 -469.598749 
L 320.059428 -473.05381 
L 321.277607 -476.508872 
L 322.412662 -479.963933 
L 323.463654 -483.418994 
L 324.430575 -486.874055 
L 325.314328 -490.329117 
L 326.116671 -493.784178 
L 326.840154 -497.239239 
L 327.488018 -500.6943 
L 328.0641 -504.149362 
L 328.572717 -507.604423 
L 329.018541 -511.059484 
L 329.406488 -514.514545 
L 333.363512 -514.514545 
L 333.363512 -514.514545 
L 333.751459 -511.059484 
L 334.197283 -507.604423 
L 334.7059 -504.149362 
L 335.281982 -500.6943 
L 335.929846 -497.239239 
L 336.653329 -493.784178 
L 337.455672 -490.329117 
L 338.339425 -486.874055 
L 339.306346 -483.418994 
L 340.357338 -479.963933 
L 341.492393 -476.508872 
L 342.710572 -473.05381 
L 344.010001 -469.598749 
L 345.387899 -466.143688 
L 346.840628 -462.688627 
L 348.363767 -459.233565 
L 349.952201 -455.778504 
L 351.600231 -452.323443 
L 353.301693 -448.868381 
L 355.050079 -445.41332 
L 356.838662 -441.958259 
L 358.660617 -438.503198 
L 360.509134 -435.048136 
L 362.377513 -431.593075 
L 364.259252 -428.138014 
L 366.148101 -424.682953 
L 368.038107 -421.227891 
L 369.923621 -417.77283 
L 371.799286 -414.317769 
L 373.659991 -410.862708 
L 375.5008 -407.407646 
L 377.316851 -403.952585 
L 379.103238 -400.497524 
L 380.854872 -397.042463 
L 382.566333 -393.587401 
L 384.231728 -390.13234 
L 385.844554 -386.677279 
L 387.397602 -383.222217 
L 388.88289 -379.767156 
L 390.291663 -376.312095 
L 391.614454 -372.857034 
L 392.841227 -369.401972 
L 393.961605 -365.946911 
L 394.965176 -362.49185 
L 395.841877 -359.036789 
L 396.582441 -355.581727 
L 397.178877 -352.126666 
L 397.624975 -348.671605 
L 397.916775 -345.216544 
L 398.053 -341.761482 
L 398.035384 -338.306421 
L 397.868886 -334.85136 
L 397.561753 -331.396299 
L 397.125403 -327.941237 
L 396.57414 -324.486176 
L 395.924672 -321.031115 
L 395.195477 -317.576054 
L 394.40602 -314.120992 
L 393.575865 -310.665931 
L 392.723736 -307.21087 
L 391.866574 -303.755808 
L 391.018648 -300.300747 
L 390.190776 -296.845686 
L 389.38971 -293.390625 
L 388.61773 -289.935563 
L 387.872469 -286.480502 
L 387.147001 -283.025441 
L 386.430182 -279.57038 
L 385.707233 -276.115318 
L 384.960538 -272.660257 
L 384.170612 -269.205196 
L 383.317178 -265.750135 
L 382.380305 -262.295073 
L 381.341529 -258.840012 
L 380.184906 -255.384951 
L 378.897921 -251.92989 
L 377.472227 -248.474828 
L 375.904163 -245.019767 
L 374.195022 -241.564706 
L 372.351083 -238.109644 
L 370.383387 -234.654583 
L 368.307303 -231.199522 
L 366.141894 -227.744461 
L 363.909146 -224.289399 
L 361.633091 -220.834338 
L 359.338878 -217.379277 
L 357.051855 -213.924216 
L 354.796689 -210.469154 
L 352.596572 -207.014093 
L 350.472549 -203.559032 
L 348.442982 -200.103971 
L 346.523172 -196.648909 
L 344.725128 -193.193848 
L 343.057495 -189.738787 
L 341.525611 -186.283726 
L 340.131693 -182.828664 
L 338.875106 -179.373603 
L 337.752711 -175.918542 
L 336.759266 -172.46348 
z
" style="stroke: #4c4c4c; stroke-width: 2"/>
    </defs>
    <g clip-path="url(#p050d34fe8d)">
     <use xlink:href="#m43b758499e" x="0" y="576" style="fill: #df2020; stroke: #4c4c4c; stroke-width: 2"/>
    </g>
   </g>
   <g id="matplotlib.axis_1">
    <g id="xtick_1">
     <g id="line2d_1">
      <defs>
       <path id="m9ca7b5ff92" d="M 0 0 
L 0 3.5 
" style="stroke: #000000; stroke-width: 0.8"/>
      </defs>
      <g>
       <use xlink:href="#m9ca7b5ff92" x="164.715" y="516.04" style="stroke: #000000; stroke-width: 0.8"/>
      </g>
     </g>
     <g id="text_1">
      <!-- Good Guy (HRL) -->
      <g transform="translate(100.28375 535.1975) scale(0.16 -0.16)">
       <defs>
        <path id="DejaVuSans-47" d="M 3809 666 
L 3809 1919 
L 2778 1919 
L 2778 2438 
L 4434 2438 
L 4434 434 
Q 4069 175 3628 42 
Q 3188 -91 2688 -91 
Q 1594 -91 976 548 
Q 359 1188 359 2328 
Q 359 3472 976 4111 
Q 1594 4750 2688 4750 
Q 3144 4750 3555 4637 
Q 3966 4525 4313 4306 
L 4313 3634 
Q 3963 3931 3569 4081 
Q 3175 4231 2741 4231 
Q 1884 4231 1454 3753 
Q 1025 3275 1025 2328 
Q 1025 1384 1454 906 
Q 1884 428 2741 428 
Q 3075 428 3337 486 
Q 3600 544 3809 666 
z
" transform="scale(0.015625)"/>
        <path id="DejaVuSans-6f" d="M 1959 3097 
Q 1497 3097 1228 2736 
Q 959 2375 959 1747 
Q 959 1119 1226 758 
Q 1494 397 1959 397 
Q 2419 397 2687 759 
Q 2956 1122 2956 1747 
Q 2956 2369 2687 2733 
Q 2419 3097 1959 3097 
z
M 1959 3584 
Q 2709 3584 3137 3096 
Q 3566 2609 3566 1747 
Q 3566 888 3137 398 
Q 2709 -91 1959 -91 
Q 1206 -91 779 398 
Q 353 888 353 1747 
Q 353 2609 779 3096 
Q 1206 3584 1959 3584 
z
" transform="scale(0.015625)"/>
        <path id="DejaVuSans-64" d="M 2906 2969 
L 2906 4863 
L 3481 4863 
L 3481 0 
L 2906 0 
L 2906 525 
Q 2725 213 2448 61 
Q 2172 -91 1784 -91 
Q 1150 -91 751 415 
Q 353 922 353 1747 
Q 353 2572 751 3078 
Q 1150 3584 1784 3584 
Q 2172 3584 2448 3432 
Q 2725 3281 2906 2969 
z
M 947 1747 
Q 947 1113 1208 752 
Q 1469 391 1925 391 
Q 2381 391 2643 752 
Q 2906 1113 2906 1747 
Q 2906 2381 2643 2742 
Q 2381 3103 1925 3103 
Q 1469 3103 1208 2742 
Q 947 2381 947 1747 
z
" transform="scale(0.015625)"/>
        <path id="DejaVuSans-20" transform="scale(0.015625)"/>
        <path id="DejaVuSans-75" d="M 544 1381 
L 544 3500 
L 1119 3500 
L 1119 1403 
Q 1119 906 1312 657 
Q 1506 409 1894 409 
Q 2359 409 2629 706 
Q 2900 1003 2900 1516 
L 2900 3500 
L 3475 3500 
L 3475 0 
L 2900 0 
L 2900 538 
Q 2691 219 2414 64 
Q 2138 -91 1772 -91 
Q 1169 -91 856 284 
Q 544 659 544 1381 
z
M 1991 3584 
L 1991 3584 
z
" transform="scale(0.015625)"/>
        <path id="DejaVuSans-79" d="M 2059 -325 
Q 1816 -950 1584 -1140 
Q 1353 -1331 966 -1331 
L 506 -1331 
L 506 -850 
L 844 -850 
Q 1081 -850 1212 -737 
Q 1344 -625 1503 -206 
L 1606 56 
L 191 3500 
L 800 3500 
L 1894 763 
L 2988 3500 
L 3597 3500 
L 2059 -325 
z
" transform="scale(0.015625)"/>
        <path id="DejaVuSans-28" d="M 1984 4856 
Q 1566 4138 1362 3434 
Q 1159 2731 1159 2009 
Q 1159 1288 1364 580 
Q 1569 -128 1984 -844 
L 1484 -844 
Q 1016 -109 783 600 
Q 550 1309 550 2009 
Q 550 2706 781 3412 
Q 1013 4119 1484 4856 
L 1984 4856 
z
" transform="scale(0.015625)"/>
        <path id="DejaVuSans-48" d="M 628 4666 
L 1259 4666 
L 1259 2753 
L 3553 2753 
L 3553 4666 
L 4184 4666 
L 4184 0 
L 3553 0 
L 3553 2222 
L 1259 2222 
L 1259 0 
L 628 0 
L 628 4666 
z
" transform="scale(0.015625)"/>
        <path id="DejaVuSans-52" d="M 2841 2188 
Q 3044 2119 3236 1894 
Q 3428 1669 3622 1275 
L 4263 0 
L 3584 0 
L 2988 1197 
Q 2756 1666 2539 1819 
Q 2322 1972 1947 1972 
L 1259 1972 
L 1259 0 
L 628 0 
L 628 4666 
L 2053 4666 
Q 2853 4666 3247 4331 
Q 3641 3997 3641 3322 
Q 3641 2881 3436 2590 
Q 3231 2300 2841 2188 
z
M 1259 4147 
L 1259 2491 
L 2053 2491 
Q 2509 2491 2742 2702 
Q 2975 2913 2975 3322 
Q 2975 3731 2742 3939 
Q 2509 4147 2053 4147 
L 1259 4147 
z
" transform="scale(0.015625)"/>
        <path id="DejaVuSans-4c" d="M 628 4666 
L 1259 4666 
L 1259 531 
L 3531 531 
L 3531 0 
L 628 0 
L 628 4666 
z
" transform="scale(0.015625)"/>
        <path id="DejaVuSans-29" d="M 513 4856 
L 1013 4856 
Q 1481 4119 1714 3412 
Q 1947 2706 1947 2009 
Q 1947 1309 1714 600 
Q 1481 -109 1013 -844 
L 513 -844 
Q 928 -128 1133 580 
Q 1338 1288 1338 2009 
Q 1338 2731 1133 3434 
Q 928 4138 513 4856 
z
" transform="scale(0.015625)"/>
       </defs>
       <use xlink:href="#DejaVuSans-47"/>
       <use xlink:href="#DejaVuSans-6f" x="77.490234"/>
       <use xlink:href="#DejaVuSans-6f" x="138.671875"/>
       <use xlink:href="#DejaVuSans-64" x="199.853516"/>
       <use xlink:href="#DejaVuSans-20" x="263.330078"/>
       <use xlink:href="#DejaVuSans-47" x="295.117188"/>
       <use xlink:href="#DejaVuSans-75" x="372.607422"/>
       <use xlink:href="#DejaVuSans-79" x="435.986328"/>
       <use xlink:href="#DejaVuSans-20" x="495.166016"/>
       <use xlink:href="#DejaVuSans-28" x="526.953125"/>
       <use xlink:href="#DejaVuSans-48" x="565.966797"/>
       <use xlink:href="#DejaVuSans-52" x="641.162109"/>
       <use xlink:href="#DejaVuSans-4c" x="710.644531"/>
       <use xlink:href="#DejaVuSans-29" x="766.357422"/>
      </g>
     </g>
    </g>
    <g id="xtick_2">
     <g id="line2d_2">
      <g>
       <use xlink:href="#m9ca7b5ff92" x="331.385" y="516.04" style="stroke: #000000; stroke-width: 0.8"/>
      </g>
     </g>
     <g id="text_2">
      <!-- Pursuers -->
      <g transform="translate(296.72625 535.1975) scale(0.16 -0.16)">
       <defs>
        <path id="DejaVuSans-50" d="M 1259 4147 
L 1259 2394 
L 2053 2394 
Q 2494 2394 2734 2622 
Q 2975 2850 2975 3272 
Q 2975 3691 2734 3919 
Q 2494 4147 2053 4147 
L 1259 4147 
z
M 628 4666 
L 2053 4666 
Q 2838 4666 3239 4311 
Q 3641 3956 3641 3272 
Q 3641 2581 3239 2228 
Q 2838 1875 2053 1875 
L 1259 1875 
L 1259 0 
L 628 0 
L 628 4666 
z
" transform="scale(0.015625)"/>
        <path id="DejaVuSans-72" d="M 2631 2963 
Q 2534 3019 2420 3045 
Q 2306 3072 2169 3072 
Q 1681 3072 1420 2755 
Q 1159 2438 1159 1844 
L 1159 0 
L 581 0 
L 581 3500 
L 1159 3500 
L 1159 2956 
Q 1341 3275 1631 3429 
Q 1922 3584 2338 3584 
Q 2397 3584 2469 3576 
Q 2541 3569 2628 3553 
L 2631 2963 
z
" transform="scale(0.015625)"/>
        <path id="DejaVuSans-73" d="M 2834 3397 
L 2834 2853 
Q 2591 2978 2328 3040 
Q 2066 3103 1784 3103 
Q 1356 3103 1142 2972 
Q 928 2841 928 2578 
Q 928 2378 1081 2264 
Q 1234 2150 1697 2047 
L 1894 2003 
Q 2506 1872 2764 1633 
Q 3022 1394 3022 966 
Q 3022 478 2636 193 
Q 2250 -91 1575 -91 
Q 1294 -91 989 -36 
Q 684 19 347 128 
L 347 722 
Q 666 556 975 473 
Q 1284 391 1588 391 
Q 1994 391 2212 530 
Q 2431 669 2431 922 
Q 2431 1156 2273 1281 
Q 2116 1406 1581 1522 
L 1381 1569 
Q 847 1681 609 1914 
Q 372 2147 372 2553 
Q 372 3047 722 3315 
Q 1072 3584 1716 3584 
Q 2034 3584 2315 3537 
Q 2597 3491 2834 3397 
z
" transform="scale(0.015625)"/>
        <path id="DejaVuSans-65" d="M 3597 1894 
L 3597 1613 
L 953 1613 
Q 991 1019 1311 708 
Q 1631 397 2203 397 
Q 2534 397 2845 478 
Q 3156 559 3463 722 
L 3463 178 
Q 3153 47 2828 -22 
Q 2503 -91 2169 -91 
Q 1331 -91 842 396 
Q 353 884 353 1716 
Q 353 2575 817 3079 
Q 1281 3584 2069 3584 
Q 2775 3584 3186 3129 
Q 3597 2675 3597 1894 
z
M 3022 2063 
Q 3016 2534 2758 2815 
Q 2500 3097 2075 3097 
Q 1594 3097 1305 2825 
Q 1016 2553 972 2059 
L 3022 2063 
z
" transform="scale(0.015625)"/>
       </defs>
       <use xlink:href="#DejaVuSans-50"/>
       <use xlink:href="#DejaVuSans-75" x="58.552734"/>
       <use xlink:href="#DejaVuSans-72" x="121.931641"/>
       <use xlink:href="#DejaVuSans-73" x="163.044922"/>
       <use xlink:href="#DejaVuSans-75" x="215.144531"/>
       <use xlink:href="#DejaVuSans-65" x="278.523438"/>
       <use xlink:href="#DejaVuSans-72" x="340.046875"/>
       <use xlink:href="#DejaVuSans-73" x="381.160156"/>
      </g>
     </g>
    </g>
    <g id="text_3">
     <!-- Group -->
     <g transform="translate(220.654844 556.202187) scale(0.18 -0.18)">
      <defs>
       <path id="DejaVuSans-70" d="M 1159 525 
L 1159 -1331 
L 581 -1331 
L 581 3500 
L 1159 3500 
L 1159 2969 
Q 1341 3281 1617 3432 
Q 1894 3584 2278 3584 
Q 2916 3584 3314 3078 
Q 3713 2572 3713 1747 
Q 3713 922 3314 415 
Q 2916 -91 2278 -91 
Q 1894 -91 1617 61 
Q 1341 213 1159 525 
z
M 3116 1747 
Q 3116 2381 2855 2742 
Q 2594 3103 2138 3103 
Q 1681 3103 1420 2742 
Q 1159 2381 1159 1747 
Q 1159 1113 1420 752 
Q 1681 391 2138 391 
Q 2594 391 2855 752 
Q 3116 1113 3116 1747 
z
" transform="scale(0.015625)"/>
      </defs>
      <use xlink:href="#DejaVuSans-47"/>
      <use xlink:href="#DejaVuSans-72" x="77.490234"/>
      <use xlink:href="#DejaVuSans-6f" x="116.353516"/>
      <use xlink:href="#DejaVuSans-75" x="177.535156"/>
      <use xlink:href="#DejaVuSans-70" x="240.914062"/>
     </g>
    </g>
   </g>
   <g id="matplotlib.axis_2">
    <g id="ytick_1">
     <g id="line2d_3">
      <defs>
       <path id="m69e4d9923b" d="M 0 0 
L -3.5 0 
" style="stroke: #000000; stroke-width: 0.8"/>
      </defs>
      <g>
       <use xlink:href="#m69e4d9923b" x="81.38" y="505.085065" style="stroke: #000000; stroke-width: 0.8"/>
      </g>
     </g>
     <g id="text_4">
      <!-- 0.30 -->
      <g transform="translate(38.755 511.163815) scale(0.16 -0.16)">
       <defs>
        <path id="DejaVuSans-30" d="M 2034 4250 
Q 1547 4250 1301 3770 
Q 1056 3291 1056 2328 
Q 1056 1369 1301 889 
Q 1547 409 2034 409 
Q 2525 409 2770 889 
Q 3016 1369 3016 2328 
Q 3016 3291 2770 3770 
Q 2525 4250 2034 4250 
z
M 2034 4750 
Q 2819 4750 3233 4129 
Q 3647 3509 3647 2328 
Q 3647 1150 3233 529 
Q 2819 -91 2034 -91 
Q 1250 -91 836 529 
Q 422 1150 422 2328 
Q 422 3509 836 4129 
Q 1250 4750 2034 4750 
z
" transform="scale(0.015625)"/>
        <path id="DejaVuSans-2e" d="M 684 794 
L 1344 794 
L 1344 0 
L 684 0 
L 684 794 
z
" transform="scale(0.015625)"/>
        <path id="DejaVuSans-33" d="M 2597 2516 
Q 3050 2419 3304 2112 
Q 3559 1806 3559 1356 
Q 3559 666 3084 287 
Q 2609 -91 1734 -91 
Q 1441 -91 1130 -33 
Q 819 25 488 141 
L 488 750 
Q 750 597 1062 519 
Q 1375 441 1716 441 
Q 2309 441 2620 675 
Q 2931 909 2931 1356 
Q 2931 1769 2642 2001 
Q 2353 2234 1838 2234 
L 1294 2234 
L 1294 2753 
L 1863 2753 
Q 2328 2753 2575 2939 
Q 2822 3125 2822 3475 
Q 2822 3834 2567 4026 
Q 2313 4219 1838 4219 
Q 1578 4219 1281 4162 
Q 984 4106 628 3988 
L 628 4550 
Q 988 4650 1302 4700 
Q 1616 4750 1894 4750 
Q 2613 4750 3031 4423 
Q 3450 4097 3450 3541 
Q 3450 3153 3228 2886 
Q 3006 2619 2597 2516 
z
" transform="scale(0.015625)"/>
       </defs>
       <use xlink:href="#DejaVuSans-30"/>
       <use xlink:href="#DejaVuSans-2e" x="63.623047"/>
       <use xlink:href="#DejaVuSans-33" x="95.410156"/>
       <use xlink:href="#DejaVuSans-30" x="159.033203"/>
      </g>
     </g>
    </g>
    <g id="ytick_2">
     <g id="line2d_4">
      <g>
       <use xlink:href="#m69e4d9923b" x="81.38" y="448.298799" style="stroke: #000000; stroke-width: 0.8"/>
      </g>
     </g>
     <g id="text_5">
      <!-- 0.35 -->
      <g transform="translate(38.755 454.377549) scale(0.16 -0.16)">
       <defs>
        <path id="DejaVuSans-35" d="M 691 4666 
L 3169 4666 
L 3169 4134 
L 1269 4134 
L 1269 2991 
Q 1406 3038 1543 3061 
Q 1681 3084 1819 3084 
Q 2600 3084 3056 2656 
Q 3513 2228 3513 1497 
Q 3513 744 3044 326 
Q 2575 -91 1722 -91 
Q 1428 -91 1123 -41 
Q 819 9 494 109 
L 494 744 
Q 775 591 1075 516 
Q 1375 441 1709 441 
Q 2250 441 2565 725 
Q 2881 1009 2881 1497 
Q 2881 1984 2565 2268 
Q 2250 2553 1709 2553 
Q 1456 2553 1204 2497 
Q 953 2441 691 2322 
L 691 4666 
z
" transform="scale(0.015625)"/>
       </defs>
       <use xlink:href="#DejaVuSans-30"/>
       <use xlink:href="#DejaVuSans-2e" x="63.623047"/>
       <use xlink:href="#DejaVuSans-33" x="95.410156"/>
       <use xlink:href="#DejaVuSans-35" x="159.033203"/>
      </g>
     </g>
    </g>
    <g id="ytick_3">
     <g id="line2d_5">
      <g>
       <use xlink:href="#m69e4d9923b" x="81.38" y="391.512532" style="stroke: #000000; stroke-width: 0.8"/>
      </g>
     </g>
     <g id="text_6">
      <!-- 0.40 -->
      <g transform="translate(38.755 397.591282) scale(0.16 -0.16)">
       <defs>
        <path id="DejaVuSans-34" d="M 2419 4116 
L 825 1625 
L 2419 1625 
L 2419 4116 
z
M 2253 4666 
L 3047 4666 
L 3047 1625 
L 3713 1625 
L 3713 1100 
L 3047 1100 
L 3047 0 
L 2419 0 
L 2419 1100 
L 313 1100 
L 313 1709 
L 2253 4666 
z
" transform="scale(0.015625)"/>
       </defs>
       <use xlink:href="#DejaVuSans-30"/>
       <use xlink:href="#DejaVuSans-2e" x="63.623047"/>
       <use xlink:href="#DejaVuSans-34" x="95.410156"/>
       <use xlink:href="#DejaVuSans-30" x="159.033203"/>
      </g>
     </g>
    </g>
    <g id="ytick_4">
     <g id="line2d_6">
      <g>
       <use xlink:href="#m69e4d9923b" x="81.38" y="334.726266" style="stroke: #000000; stroke-width: 0.8"/>
      </g>
     </g>
     <g id="text_7">
      <!-- 0.45 -->
      <g transform="translate(38.755 340.805016) scale(0.16 -0.16)">
       <use xlink:href="#DejaVuSans-30"/>
       <use xlink:href="#DejaVuSans-2e" x="63.623047"/>
       <use xlink:href="#DejaVuSans-34" x="95.410156"/>
       <use xlink:href="#DejaVuSans-35" x="159.033203"/>
      </g>
     </g>
    </g>
    <g id="ytick_5">
     <g id="line2d_7">
      <g>
       <use xlink:href="#m69e4d9923b" x="81.38" y="277.94" style="stroke: #000000; stroke-width: 0.8"/>
      </g>
     </g>
     <g id="text_8">
      <!-- 0.50 -->
      <g transform="translate(38.755 284.01875) scale(0.16 -0.16)">
       <use xlink:href="#DejaVuSans-30"/>
       <use xlink:href="#DejaVuSans-2e" x="63.623047"/>
       <use xlink:href="#DejaVuSans-35" x="95.410156"/>
       <use xlink:href="#DejaVuSans-30" x="159.033203"/>
      </g>
     </g>
    </g>
    <g id="ytick_6">
     <g id="line2d_8">
      <g>
       <use xlink:href="#m69e4d9923b" x="81.38" y="221.153734" style="stroke: #000000; stroke-width: 0.8"/>
      </g>
     </g>
     <g id="text_9">
      <!-- 0.55 -->
      <g transform="translate(38.755 227.232484) scale(0.16 -0.16)">
       <use xlink:href="#DejaVuSans-30"/>
       <use xlink:href="#DejaVuSans-2e" x="63.623047"/>
       <use xlink:href="#DejaVuSans-35" x="95.410156"/>
       <use xlink:href="#DejaVuSans-35" x="159.033203"/>
      </g>
     </g>
    </g>
    <g id="ytick_7">
     <g id="line2d_9">
      <g>
       <use xlink:href="#m69e4d9923b" x="81.38" y="164.367468" style="stroke: #000000; stroke-width: 0.8"/>
      </g>
     </g>
     <g id="text_10">
      <!-- 0.60 -->
      <g transform="translate(38.755 170.446218) scale(0.16 -0.16)">
       <defs>
        <path id="DejaVuSans-36" d="M 2113 2584 
Q 1688 2584 1439 2293 
Q 1191 2003 1191 1497 
Q 1191 994 1439 701 
Q 1688 409 2113 409 
Q 2538 409 2786 701 
Q 3034 994 3034 1497 
Q 3034 2003 2786 2293 
Q 2538 2584 2113 2584 
z
M 3366 4563 
L 3366 3988 
Q 3128 4100 2886 4159 
Q 2644 4219 2406 4219 
Q 1781 4219 1451 3797 
Q 1122 3375 1075 2522 
Q 1259 2794 1537 2939 
Q 1816 3084 2150 3084 
Q 2853 3084 3261 2657 
Q 3669 2231 3669 1497 
Q 3669 778 3244 343 
Q 2819 -91 2113 -91 
Q 1303 -91 875 529 
Q 447 1150 447 2328 
Q 447 3434 972 4092 
Q 1497 4750 2381 4750 
Q 2619 4750 2861 4703 
Q 3103 4656 3366 4563 
z
" transform="scale(0.015625)"/>
       </defs>
       <use xlink:href="#DejaVuSans-30"/>
       <use xlink:href="#DejaVuSans-2e" x="63.623047"/>
       <use xlink:href="#DejaVuSans-36" x="95.410156"/>
       <use xlink:href="#DejaVuSans-30" x="159.033203"/>
      </g>
     </g>
    </g>
    <g id="ytick_8">
     <g id="line2d_10">
      <g>
       <use xlink:href="#m69e4d9923b" x="81.38" y="107.581201" style="stroke: #000000; stroke-width: 0.8"/>
      </g>
     </g>
     <g id="text_11">
      <!-- 0.65 -->
      <g transform="translate(38.755 113.659951) scale(0.16 -0.16)">
       <use xlink:href="#DejaVuSans-30"/>
       <use xlink:href="#DejaVuSans-2e" x="63.623047"/>
       <use xlink:href="#DejaVuSans-36" x="95.410156"/>
       <use xlink:href="#DejaVuSans-35" x="159.033203"/>
      </g>
     </g>
    </g>
    <g id="ytick_9">
     <g id="line2d_11">
      <g>
       <use xlink:href="#m69e4d9923b" x="81.38" y="50.794935" style="stroke: #000000; stroke-width: 0.8"/>
      </g>
     </g>
     <g id="text_12">
      <!-- 0.70 -->
      <g transform="translate(38.755 56.873685) scale(0.16 -0.16)">
       <defs>
        <path id="DejaVuSans-37" d="M 525 4666 
L 3525 4666 
L 3525 4397 
L 1831 0 
L 1172 0 
L 2766 4134 
L 525 4134 
L 525 4666 
z
" transform="scale(0.015625)"/>
       </defs>
       <use xlink:href="#DejaVuSans-30"/>
       <use xlink:href="#DejaVuSans-2e" x="63.623047"/>
       <use xlink:href="#DejaVuSans-37" x="95.410156"/>
       <use xlink:href="#DejaVuSans-30" x="159.033203"/>
      </g>
     </g>
    </g>
    <g id="text_13">
     <!-- Win Rate -->
     <g transform="translate(31.011563 318.333125) rotate(-90) scale(0.18 -0.18)">
      <defs>
       <path id="DejaVuSans-57" d="M 213 4666 
L 850 4666 
L 1831 722 
L 2809 4666 
L 3519 4666 
L 4500 722 
L 5478 4666 
L 6119 4666 
L 4947 0 
L 4153 0 
L 3169 4050 
L 2175 0 
L 1381 0 
L 213 4666 
z
" transform="scale(0.015625)"/>
       <path id="DejaVuSans-69" d="M 603 3500 
L 1178 3500 
L 1178 0 
L 603 0 
L 603 3500 
z
M 603 4863 
L 1178 4863 
L 1178 4134 
L 603 4134 
L 603 4863 
z
" transform="scale(0.015625)"/>
       <path id="DejaVuSans-6e" d="M 3513 2113 
L 3513 0 
L 2938 0 
L 2938 2094 
Q 2938 2591 2744 2837 
Q 2550 3084 2163 3084 
Q 1697 3084 1428 2787 
Q 1159 2491 1159 1978 
L 1159 0 
L 581 0 
L 581 3500 
L 1159 3500 
L 1159 2956 
Q 1366 3272 1645 3428 
Q 1925 3584 2291 3584 
Q 2894 3584 3203 3211 
Q 3513 2838 3513 2113 
z
" transform="scale(0.015625)"/>
       <path id="DejaVuSans-61" d="M 2194 1759 
Q 1497 1759 1228 1600 
Q 959 1441 959 1056 
Q 959 750 1161 570 
Q 1363 391 1709 391 
Q 2188 391 2477 730 
Q 2766 1069 2766 1631 
L 2766 1759 
L 2194 1759 
z
M 3341 1997 
L 3341 0 
L 2766 0 
L 2766 531 
Q 2569 213 2275 61 
Q 1981 -91 1556 -91 
Q 1019 -91 701 211 
Q 384 513 384 1019 
Q 384 1609 779 1909 
Q 1175 2209 1959 2209 
L 2766 2209 
L 2766 2266 
Q 2766 2663 2505 2880 
Q 2244 3097 1772 3097 
Q 1472 3097 1187 3025 
Q 903 2953 641 2809 
L 641 3341 
Q 956 3463 1253 3523 
Q 1550 3584 1831 3584 
Q 2591 3584 2966 3190 
Q 3341 2797 3341 1997 
z
" transform="scale(0.015625)"/>
       <path id="DejaVuSans-74" d="M 1172 4494 
L 1172 3500 
L 2356 3500 
L 2356 3053 
L 1172 3053 
L 1172 1153 
Q 1172 725 1289 603 
Q 1406 481 1766 481 
L 2356 481 
L 2356 0 
L 1766 0 
Q 1100 0 847 248 
Q 594 497 594 1153 
L 594 3053 
L 172 3053 
L 172 3500 
L 594 3500 
L 594 4494 
L 1172 4494 
z
" transform="scale(0.015625)"/>
      </defs>
      <use xlink:href="#DejaVuSans-57"/>
      <use xlink:href="#DejaVuSans-69" x="96.626953"/>
      <use xlink:href="#DejaVuSans-6e" x="124.410156"/>
      <use xlink:href="#DejaVuSans-20" x="187.789062"/>
      <use xlink:href="#DejaVuSans-52" x="219.576172"/>
      <use xlink:href="#DejaVuSans-61" x="286.808594"/>
      <use xlink:href="#DejaVuSans-74" x="348.087891"/>
      <use xlink:href="#DejaVuSans-65" x="387.296875"/>
     </g>
    </g>
   </g>
   <g id="line2d_12">
    <path d="M 164.715 414.227039 
L 164.715 232.510987 
" clip-path="url(#p050d34fe8d)" style="fill: none; stroke: #4c4c4c; stroke-width: 3; stroke-linecap: square"/>
   </g>
   <g id="line2d_13">
    <path d="M 164.715 357.440773 
L 164.715 249.546867 
" clip-path="url(#p050d34fe8d)" style="fill: none; stroke: #4c4c4c; stroke-width: 9; stroke-linecap: square"/>
   </g>
   <g id="line2d_14">
    <path d="M 164.715 312.01176 
" clip-path="url(#p050d34fe8d)" style="fill: none; stroke: #4c4c4c; stroke-width: 1.5; stroke-linecap: square"/>
    <defs>
     <path id="m91f922143e" d="M 3.75 0 
L -3.75 -0 
" style="stroke: #ffffff; stroke-width: 1.8"/>
    </defs>
    <g clip-path="url(#p050d34fe8d)">
     <use xlink:href="#m91f922143e" x="164.715" y="312.01176" style="fill: #ffffff; stroke: #ffffff; stroke-width: 1.8"/>
    </g>
   </g>
   <g id="line2d_15">
    <path d="M 331.385 323.369013 
L 331.385 141.652961 
" clip-path="url(#p050d34fe8d)" style="fill: none; stroke: #4c4c4c; stroke-width: 3; stroke-linecap: square"/>
   </g>
   <g id="line2d_16">
    <path d="M 331.385 306.333133 
L 331.385 198.439227 
" clip-path="url(#p050d34fe8d)" style="fill: none; stroke: #4c4c4c; stroke-width: 9; stroke-linecap: square"/>
   </g>
   <g id="line2d_17">
    <path d="M 331.385 243.86824 
" clip-path="url(#p050d34fe8d)" style="fill: none; stroke: #4c4c4c; stroke-width: 1.5; stroke-linecap: square"/>
    <g clip-path="url(#p050d34fe8d)">
     <use xlink:href="#m91f922143e" x="331.385" y="243.86824" style="fill: #ffffff; stroke: #ffffff; stroke-width: 1.8"/>
    </g>
   </g>
   <g id="patch_3">
    <path d="M 81.38 516.04 
L 81.38 39.84 
" style="fill: none; stroke: #000000; stroke-width: 0.8; stroke-linejoin: miter; stroke-linecap: square"/>
   </g>
   <g id="patch_4">
    <path d="M 414.72 516.04 
L 414.72 39.84 
" style="fill: none; stroke: #000000; stroke-width: 0.8; stroke-linejoin: miter; stroke-linecap: square"/>
   </g>
   <g id="patch_5">
    <path d="M 81.38 516.04 
L 414.72 516.04 
" style="fill: none; stroke: #000000; stroke-width: 0.8; stroke-linejoin: miter; stroke-linecap: square"/>
   </g>
   <g id="patch_6">
    <path d="M 81.38 39.84 
L 414.72 39.84 
" style="fill: none; stroke: #000000; stroke-width: 0.8; stroke-linejoin: miter; stroke-linecap: square"/>
   </g>
   <g id="text_14">
    <!-- Win Rates with Different Seeds -->
    <g transform="translate(77.527656 33.84) scale(0.22 -0.22)">
     <defs>
      <path id="DejaVuSans-77" d="M 269 3500 
L 844 3500 
L 1563 769 
L 2278 3500 
L 2956 3500 
L 3675 769 
L 4391 3500 
L 4966 3500 
L 4050 0 
L 3372 0 
L 2619 2869 
L 1863 0 
L 1184 0 
L 269 3500 
z
" transform="scale(0.015625)"/>
      <path id="DejaVuSans-68" d="M 3513 2113 
L 3513 0 
L 2938 0 
L 2938 2094 
Q 2938 2591 2744 2837 
Q 2550 3084 2163 3084 
Q 1697 3084 1428 2787 
Q 1159 2491 1159 1978 
L 1159 0 
L 581 0 
L 581 4863 
L 1159 4863 
L 1159 2956 
Q 1366 3272 1645 3428 
Q 1925 3584 2291 3584 
Q 2894 3584 3203 3211 
Q 3513 2838 3513 2113 
z
" transform="scale(0.015625)"/>
      <path id="DejaVuSans-44" d="M 1259 4147 
L 1259 519 
L 2022 519 
Q 2988 519 3436 956 
Q 3884 1394 3884 2338 
Q 3884 3275 3436 3711 
Q 2988 4147 2022 4147 
L 1259 4147 
z
M 628 4666 
L 1925 4666 
Q 3281 4666 3915 4102 
Q 4550 3538 4550 2338 
Q 4550 1131 3912 565 
Q 3275 0 1925 0 
L 628 0 
L 628 4666 
z
" transform="scale(0.015625)"/>
      <path id="DejaVuSans-66" d="M 2375 4863 
L 2375 4384 
L 1825 4384 
Q 1516 4384 1395 4259 
Q 1275 4134 1275 3809 
L 1275 3500 
L 2222 3500 
L 2222 3053 
L 1275 3053 
L 1275 0 
L 697 0 
L 697 3053 
L 147 3053 
L 147 3500 
L 697 3500 
L 697 3744 
Q 697 4328 969 4595 
Q 1241 4863 1831 4863 
L 2375 4863 
z
" transform="scale(0.015625)"/>
      <path id="DejaVuSans-53" d="M 3425 4513 
L 3425 3897 
Q 3066 4069 2747 4153 
Q 2428 4238 2131 4238 
Q 1616 4238 1336 4038 
Q 1056 3838 1056 3469 
Q 1056 3159 1242 3001 
Q 1428 2844 1947 2747 
L 2328 2669 
Q 3034 2534 3370 2195 
Q 3706 1856 3706 1288 
Q 3706 609 3251 259 
Q 2797 -91 1919 -91 
Q 1588 -91 1214 -16 
Q 841 59 441 206 
L 441 856 
Q 825 641 1194 531 
Q 1563 422 1919 422 
Q 2459 422 2753 634 
Q 3047 847 3047 1241 
Q 3047 1584 2836 1778 
Q 2625 1972 2144 2069 
L 1759 2144 
Q 1053 2284 737 2584 
Q 422 2884 422 3419 
Q 422 4038 858 4394 
Q 1294 4750 2059 4750 
Q 2388 4750 2728 4690 
Q 3069 4631 3425 4513 
z
" transform="scale(0.015625)"/>
     </defs>
     <use xlink:href="#DejaVuSans-57"/>
     <use xlink:href="#DejaVuSans-69" x="96.626953"/>
     <use xlink:href="#DejaVuSans-6e" x="124.410156"/>
     <use xlink:href="#DejaVuSans-20" x="187.789062"/>
     <use xlink:href="#DejaVuSans-52" x="219.576172"/>
     <use xlink:href="#DejaVuSans-61" x="286.808594"/>
     <use xlink:href="#DejaVuSans-74" x="348.087891"/>
     <use xlink:href="#DejaVuSans-65" x="387.296875"/>
     <use xlink:href="#DejaVuSans-73" x="448.820312"/>
     <use xlink:href="#DejaVuSans-20" x="500.919922"/>
     <use xlink:href="#DejaVuSans-77" x="532.707031"/>
     <use xlink:href="#DejaVuSans-69" x="614.494141"/>
     <use xlink:href="#DejaVuSans-74" x="642.277344"/>
     <use xlink:href="#DejaVuSans-68" x="681.486328"/>
     <use xlink:href="#DejaVuSans-20" x="744.865234"/>
     <use xlink:href="#DejaVuSans-44" x="776.652344"/>
     <use xlink:href="#DejaVuSans-69" x="853.654297"/>
     <use xlink:href="#DejaVuSans-66" x="881.4375"/>
     <use xlink:href="#DejaVuSans-66" x="916.642578"/>
     <use xlink:href="#DejaVuSans-65" x="951.847656"/>
     <use xlink:href="#DejaVuSans-72" x="1013.371094"/>
     <use xlink:href="#DejaVuSans-65" x="1052.234375"/>
     <use xlink:href="#DejaVuSans-6e" x="1113.757812"/>
     <use xlink:href="#DejaVuSans-74" x="1177.136719"/>
     <use xlink:href="#DejaVuSans-20" x="1216.345703"/>
     <use xlink:href="#DejaVuSans-53" x="1248.132812"/>
     <use xlink:href="#DejaVuSans-65" x="1311.609375"/>
     <use xlink:href="#DejaVuSans-65" x="1373.132812"/>
     <use xlink:href="#DejaVuSans-64" x="1434.65625"/>
     <use xlink:href="#DejaVuSans-73" x="1498.132812"/>
    </g>
   </g>
  </g>
 </g>
 <defs>
  <clipPath id="p050d34fe8d">
   <rect x="81.38" y="39.84" width="333.34" height="476.2"/>
  </clipPath>
 </defs>
</svg>
